<?xml version="1.0" encoding="UTF-8" standalone="no"?>
<!-- Created with Inkscape (http://www.inkscape.org/) -->

<svg
   xmlns:dc="http://purl.org/dc/elements/1.1/"
   xmlns:cc="http://creativecommons.org/ns#"
   xmlns:rdf="http://www.w3.org/1999/02/22-rdf-syntax-ns#"
   xmlns:svg="http://www.w3.org/2000/svg"
   xmlns="http://www.w3.org/2000/svg"
   xmlns:sodipodi="http://sodipodi.sourceforge.net/DTD/sodipodi-0.dtd"
   xmlns:inkscape="http://www.inkscape.org/namespaces/inkscape"
   width="1000"
   height="2000"
   viewBox="0 0 264.58333 529.16668"
   version="1.1"
   id="svg8"
   inkscape:version="0.92.4 (unknown)"
   sodipodi:docname="uppercase.svg">
  <defs
     id="defs2" />
  <sodipodi:namedview
     id="base"
     pagecolor="#ffffff"
     bordercolor="#666666"
     borderopacity="1.0"
     inkscape:pageopacity="0.0"
     inkscape:pageshadow="2"
     inkscape:zoom="0.037054341"
     inkscape:cx="6799.3073"
     inkscape:cy="4663.2872"
     inkscape:document-units="px"
     inkscape:current-layer="layer1"
     showgrid="true"
     units="px"
     inkscape:window-width="1920"
     inkscape:window-height="1018"
     inkscape:window-x="0"
     inkscape:window-y="0"
     inkscape:window-maximized="1"
     showguides="true"
     inkscape:guide-bbox="true"
     inkscape:snap-grids="false"
     inkscape:snap-smooth-nodes="true"
     inkscape:snap-bbox="true"
     inkscape:bbox-nodes="false"
     inkscape:snap-bbox-edge-midpoints="false"
     inkscape:bbox-paths="true"
     inkscape:snap-global="true"
     inkscape:object-paths="true"
     inkscape:snap-intersection-paths="true"
     inkscape:snap-midpoints="true"
     inkscape:snap-others="true"
     inkscape:snap-text-baseline="true">
    <inkscape:grid
       type="xygrid"
       id="grid1420"
       spacingx="4.2333334"
       spacingy="4.2333334"
       empspacing="8"
       originy="12.7"
       color="#9494ff"
       opacity="0.29411765"
       empcolor="#7e79f2"
       empopacity="0.50196078" />
  </sodipodi:namedview>
  <metadata
     id="metadata5">
    <rdf:RDF>
      <cc:Work
         rdf:about="">
        <dc:format>image/svg+xml</dc:format>
        <dc:type
           rdf:resource="http://purl.org/dc/dcmitype/StillImage" />
        <dc:title />
      </cc:Work>
    </rdf:RDF>
  </metadata>
  <g
     inkscape:label="Layer 1"
     inkscape:groupmode="layer"
     id="layer1"
     transform="translate(0,232.16668)">
    <g
       id="g2467"
       transform="matrix(0.28199539,0,0,-0.28630592,4322.1846,233.13916)"
       style="fill:#09160f;fill-opacity:1;stroke:none;stroke-width:0.93116426;stroke-opacity:1">
      <path
         id="path2465"
         d="m 846.749,870.922 c -46.1562,30.3438 -97.875,47.0781 -150.749,47.0781 -170.017,0 -328.017,-173 -328.017,-415 0.0156,-101.047 27.5625,-187.608 72.0156,-254.188 l -0.40332,-0.92383 c -99.4199,64.5283 -171.596,190.434 -171.596,354.111 0,242.392 158.266,416.00003 329,416.00003 96.1914,0 188.434,-55.11623 250.64,-146.59803 z M 214.313,115.073 C 314.3013,15.1072 446.969,-46 597,-46 c 329.344,0 574.999,294.438 574.999,648 0,196.091 -75.5586,378.284 -199.037,501.688 l 0.81836,0.5928 99.00004,-99 c 123.609,-123.60903 199.22,-306.01603 199.22,-502.26603 0,-354 -246.001,-649.017 -576.00004,-649.017 -150.359,0 -283.281,61.250003 -383.438,161.406003 l -99,98.999997 z"
         inkscape:connector-curvature="0"
         style="fill:#09160f;fill-opacity:1;stroke:none;stroke-width:0.93116426;stroke-opacity:1" />
    </g>
    <g
       style="stroke-width:0.53488594"
       transform="matrix(2.2527949,0,0,1.5515152,-8114.1732,-46.520498)"
       id="g1282">
      <path
         inkscape:connector-curvature="0"
         id="path1248-5"
         d="M -140.2636,-540.80713 H 6055.6515"
         style="opacity:1;fill:none;fill-opacity:1;stroke:#ff1a1a;stroke-width:1.41521907;stroke-linecap:butt;stroke-linejoin:miter;stroke-miterlimit:4;stroke-dasharray:none;stroke-dashoffset:0;stroke-opacity:1;paint-order:normal"
         sodipodi:nodetypes="cc" />
      <path
         style="opacity:1;fill:none;fill-opacity:1;stroke:#ff1a1a;stroke-width:1.41521907;stroke-linecap:butt;stroke-linejoin:miter;stroke-miterlimit:4;stroke-dasharray:none;stroke-dashoffset:0;stroke-opacity:1;paint-order:normal"
         d="M 98.983982,-323.9771 H 6055.1098"
         id="path1250-3"
         inkscape:connector-curvature="0"
         sodipodi:nodetypes="cc" />
      <rect
         style="opacity:1;fill:none;fill-opacity:1;stroke:#e818e2;stroke-width:0.56608766;stroke-linecap:butt;stroke-linejoin:miter;stroke-miterlimit:4;stroke-dasharray:none;stroke-dashoffset:0;stroke-opacity:1;paint-order:normal"
         id="rect1252"
         width="205.79747"
         height="212.94052"
         x="-111.59186"
         y="-539.14642" />
      <path
         style="opacity:1;fill:none;fill-opacity:1;stroke:#ff1a1a;stroke-width:1.41521907;stroke-linecap:butt;stroke-linejoin:miter;stroke-miterlimit:4;stroke-dasharray:none;stroke-dashoffset:0;stroke-opacity:1;paint-order:normal"
         d="M 98.983982,-462.08961 H 6055.1098"
         id="path1256"
         inkscape:connector-curvature="0"
         sodipodi:nodetypes="cc" />
      <path
         style="opacity:1;fill:none;fill-opacity:1;stroke:#ffa3a3;stroke-width:1.41521907;stroke-linecap:butt;stroke-linejoin:miter;stroke-miterlimit:4;stroke-dasharray:none;stroke-dashoffset:0;stroke-opacity:1;paint-order:normal"
         d="M 98.983982,-469.96294 H 6055.1098"
         id="path1111-5"
         inkscape:connector-curvature="0"
         sodipodi:nodetypes="cc" />
      <path
         style="opacity:1;fill:none;fill-opacity:1;stroke:#ffa3a3;stroke-width:1.41521907;stroke-linecap:butt;stroke-linejoin:miter;stroke-miterlimit:4;stroke-dasharray:none;stroke-dashoffset:0;stroke-opacity:1;paint-order:normal"
         d="M 98.983982,-236.90707 H 6055.1098"
         id="path1113-6"
         inkscape:connector-curvature="0"
         sodipodi:nodetypes="cc" />
      <path
         sodipodi:nodetypes="cc"
         style="opacity:1;fill:none;fill-opacity:1;stroke:#ff1a1a;stroke-width:1.41521907;stroke-linecap:butt;stroke-linejoin:miter;stroke-miterlimit:4;stroke-dasharray:none;stroke-dashoffset:0;stroke-opacity:1;paint-order:normal"
         d="M -140.2636,-607.04917 H 6055.6515"
         id="path1318"
         inkscape:connector-curvature="0" />
      <path
         sodipodi:nodetypes="cc"
         style="opacity:1;fill:none;fill-opacity:1;stroke:#1a34ff;stroke-width:1.41521907;stroke-linecap:butt;stroke-linejoin:miter;stroke-miterlimit:4;stroke-dasharray:none;stroke-dashoffset:0;stroke-opacity:1;paint-order:normal"
         d="M -140.2636,-533.73854 H 6055.6515"
         id="path998"
         inkscape:connector-curvature="0" />
    </g>
    <path
       inkscape:connector-curvature="0"
       id="path1134"
       d="M 472.01742,-547.94615 H 984.32774"
       style="opacity:1;fill:none;fill-opacity:1;stroke:#ff1a1a;stroke-width:2.64583349;stroke-linecap:butt;stroke-linejoin:miter;stroke-miterlimit:4;stroke-dasharray:none;stroke-dashoffset:0;stroke-opacity:1;paint-order:normal" />
    <path
       style="opacity:1;fill:none;fill-opacity:1;stroke:#ff1a1a;stroke-width:2.64583349;stroke-linecap:butt;stroke-linejoin:miter;stroke-miterlimit:4;stroke-dasharray:none;stroke-dashoffset:0;stroke-opacity:1;paint-order:normal"
       d="M 472.01742,-882.91828 H 984.32774"
       id="path1132"
       inkscape:connector-curvature="0" />
    <rect
       y="-495.40149"
       x="673.7381"
       height="330.38046"
       width="319.29791"
       id="rect1195"
       style="opacity:1;fill:none;fill-opacity:1;stroke:#e818e2;stroke-width:1.05833352;stroke-linecap:butt;stroke-linejoin:miter;stroke-miterlimit:4;stroke-dasharray:none;stroke-dashoffset:0;stroke-opacity:1;paint-order:normal" />
    <path
       inkscape:connector-curvature="0"
       style="color:#000000;font-style:normal;font-variant:normal;font-weight:normal;font-stretch:normal;font-size:medium;line-height:normal;font-family:sans-serif;font-variant-ligatures:normal;font-variant-position:normal;font-variant-caps:normal;font-variant-numeric:normal;font-variant-alternates:normal;font-feature-settings:normal;text-indent:0;text-align:start;text-decoration:none;text-decoration-line:none;text-decoration-style:solid;text-decoration-color:#000000;letter-spacing:normal;word-spacing:normal;text-transform:none;writing-mode:lr-tb;direction:ltr;text-orientation:mixed;dominant-baseline:auto;baseline-shift:baseline;text-anchor:start;white-space:normal;shape-padding:0;clip-rule:nonzero;display:inline;overflow:visible;visibility:visible;opacity:1;isolation:auto;mix-blend-mode:normal;color-interpolation:sRGB;color-interpolation-filters:linearRGB;solid-color:#000000;solid-opacity:1;vector-effect:none;fill:#000000;fill-opacity:1;fill-rule:nonzero;stroke:none;stroke-width:42.33333588;stroke-linecap:butt;stroke-linejoin:miter;stroke-miterlimit:4;stroke-dasharray:none;stroke-dashoffset:0;stroke-opacity:1;paint-order:normal;color-rendering:auto;image-rendering:auto;shape-rendering:auto;text-rendering:auto;enable-background:accumulate"
       d="m 4581.0538,-884.14809 v 65.6817 h 88.7758 v 269.2905 h 65.6816 v -269.2905 h 88.7758 v -65.6817 h -88.7758 -65.6816 z"
       id="path978" />
    <path
       style="opacity:1;fill:none;fill-opacity:1;stroke:#ff1a1a;stroke-width:2.64583349;stroke-linecap:butt;stroke-linejoin:miter;stroke-miterlimit:4;stroke-dasharray:none;stroke-dashoffset:0;stroke-opacity:1;paint-order:normal"
       d="m 5826.7827,-547.94615 h 512.3104"
       id="path982"
       inkscape:connector-curvature="0" />
    <path
       inkscape:connector-curvature="0"
       id="path984"
       d="M 5393.2896,-882.91828 H 6332.525"
       style="opacity:1;fill:none;fill-opacity:1;stroke:#ff1a1a;stroke-width:2.64583349;stroke-linecap:butt;stroke-linejoin:miter;stroke-miterlimit:4;stroke-dasharray:none;stroke-dashoffset:0;stroke-opacity:1;paint-order:normal" />
    <path
       style="color:#000000;font-style:normal;font-variant:normal;font-weight:normal;font-stretch:normal;font-size:medium;line-height:normal;font-family:sans-serif;font-variant-ligatures:normal;font-variant-position:normal;font-variant-caps:normal;font-variant-numeric:normal;font-variant-alternates:normal;font-feature-settings:normal;text-indent:0;text-align:start;text-decoration:none;text-decoration-line:none;text-decoration-style:solid;text-decoration-color:#000000;letter-spacing:normal;word-spacing:normal;text-transform:none;writing-mode:lr-tb;direction:ltr;text-orientation:mixed;dominant-baseline:auto;baseline-shift:baseline;text-anchor:start;white-space:normal;shape-padding:0;clip-rule:nonzero;display:inline;overflow:visible;visibility:visible;opacity:1;isolation:auto;mix-blend-mode:normal;color-interpolation:sRGB;color-interpolation-filters:linearRGB;solid-color:#000000;solid-opacity:1;vector-effect:none;fill:#000000;fill-opacity:1;fill-rule:nonzero;stroke:none;stroke-width:42.33333588;stroke-linecap:butt;stroke-linejoin:bevel;stroke-miterlimit:4;stroke-dasharray:none;stroke-dashoffset:0;stroke-opacity:1;paint-order:normal;color-rendering:auto;image-rendering:auto;shape-rendering:auto;text-rendering:auto;enable-background:accumulate"
       d="m 5158.5193,-882.91828 113.1776,334.97178 h 65.242 l 113.1766,-334.97178 h -70.0551 l -74.2106,240.88555 -77.1291,-240.88555 z"
       id="path912-5"
       inkscape:connector-curvature="0"
       sodipodi:nodetypes="cccccccc" />
    <path
       style="color:#000000;font-style:normal;font-variant:normal;font-weight:normal;font-stretch:normal;font-size:medium;line-height:normal;font-family:sans-serif;font-variant-ligatures:normal;font-variant-position:normal;font-variant-caps:normal;font-variant-numeric:normal;font-variant-alternates:normal;font-feature-settings:normal;text-indent:0;text-align:start;text-decoration:none;text-decoration-line:none;text-decoration-style:solid;text-decoration-color:#000000;letter-spacing:normal;word-spacing:normal;text-transform:none;writing-mode:lr-tb;direction:ltr;text-orientation:mixed;dominant-baseline:auto;baseline-shift:baseline;text-anchor:start;white-space:normal;shape-padding:0;clip-rule:nonzero;display:inline;overflow:visible;visibility:visible;opacity:1;isolation:auto;mix-blend-mode:normal;color-interpolation:sRGB;color-interpolation-filters:linearRGB;solid-color:#000000;solid-opacity:1;vector-effect:none;fill:#000000;fill-opacity:1;fill-rule:nonzero;stroke:none;stroke-width:160.00001526;stroke-linecap:butt;stroke-linejoin:miter;stroke-miterlimit:4;stroke-dasharray:none;stroke-dashoffset:0;stroke-opacity:1;paint-order:normal;color-rendering:auto;image-rendering:auto;shape-rendering:auto;text-rendering:auto;enable-background:accumulate"
       d="M 4695.1406 -2459.5625 L 4695.1406 -1193.5234 L 4943.375 -1193.5234 L 4943.375 -1702.4297 L 5439.8223 -1702.4297 L 5439.8223 -1193.5234 L 5688.0566 -1193.5234 L 5688.0566 -2459.5625 L 5439.8223 -2459.5625 L 5439.8223 -1950.6641 L 4943.375 -1950.6641 L 4943.375 -2459.5625 L 4695.1406 -2459.5625 z "
       transform="matrix(0.26458333,0,0,0.26458333,0,-232.16668)"
       id="path986" />
    <path
       inkscape:connector-curvature="0"
       id="path1021"
       d="m 1641.1499,-1350.1239 h 512.3104"
       style="opacity:1;fill:none;fill-opacity:1;stroke:#ff1a1a;stroke-width:2.64583349;stroke-linecap:butt;stroke-linejoin:miter;stroke-miterlimit:4;stroke-dasharray:none;stroke-dashoffset:0;stroke-opacity:1;paint-order:normal" />
    <path
       style="opacity:1;fill:none;fill-opacity:1;stroke:#ff1a1a;stroke-width:2.64583349;stroke-linecap:butt;stroke-linejoin:miter;stroke-miterlimit:4;stroke-dasharray:none;stroke-dashoffset:0;stroke-opacity:1;paint-order:normal"
       d="m 3298.0714,-304.92716 h 512.3104"
       id="path1023"
       inkscape:connector-curvature="0" />
    <path
       style="color:#000000;font-style:normal;font-variant:normal;font-weight:normal;font-stretch:normal;font-size:medium;line-height:normal;font-family:sans-serif;font-variant-ligatures:normal;font-variant-position:normal;font-variant-caps:normal;font-variant-numeric:normal;font-variant-alternates:normal;font-feature-settings:normal;text-indent:0;text-align:start;text-decoration:none;text-decoration-line:none;text-decoration-style:solid;text-decoration-color:#000000;letter-spacing:normal;word-spacing:normal;text-transform:none;writing-mode:lr-tb;direction:ltr;text-orientation:mixed;dominant-baseline:auto;baseline-shift:baseline;text-anchor:start;white-space:normal;shape-padding:0;clip-rule:nonzero;display:inline;overflow:visible;visibility:visible;opacity:1;isolation:auto;mix-blend-mode:normal;color-interpolation:sRGB;color-interpolation-filters:linearRGB;solid-color:#000000;solid-opacity:1;vector-effect:none;fill:#000000;fill-opacity:1;fill-rule:nonzero;stroke:none;stroke-width:42.33332825;stroke-linecap:butt;stroke-linejoin:miter;stroke-miterlimit:4;stroke-dasharray:none;stroke-dashoffset:0;stroke-opacity:1;paint-order:normal;color-rendering:auto;image-rendering:auto;shape-rendering:auto;text-rendering:auto;enable-background:accumulate"
       d="m 1949.8509,-1311.2412 v 230.3801 h 65.6787 v -230.3801 z"
       id="path1025"
       inkscape:connector-curvature="0" />
    <path
       sodipodi:open="true"
       d="m 1982.642,-1080.8889 a 71.627213,75.460434 0 0 1 -35.8136,65.3506 71.627213,75.460434 0 0 1 -71.6272,0 71.627213,75.460434 0 0 1 -35.8136,-65.3506"
       sodipodi:end="3.1415927"
       sodipodi:start="0"
       sodipodi:ry="75.460434"
       sodipodi:rx="71.627213"
       sodipodi:cy="-1080.8889"
       sodipodi:cx="1911.0148"
       sodipodi:type="arc"
       id="path1027"
       style="opacity:1;fill:none;fill-opacity:1;stroke:#000000;stroke-width:65.6166687;stroke-linecap:butt;stroke-linejoin:miter;stroke-miterlimit:4;stroke-dasharray:none;stroke-dashoffset:0;stroke-opacity:1;paint-order:normal" />
    <path
       inkscape:connector-curvature="0"
       id="path1041"
       d="m 2278.0008,-1350.8369 v 334.9727 h 65.6787 v -334.9727 z"
       style="color:#000000;font-style:normal;font-variant:normal;font-weight:normal;font-stretch:normal;font-size:medium;line-height:normal;font-family:sans-serif;font-variant-ligatures:normal;font-variant-position:normal;font-variant-caps:normal;font-variant-numeric:normal;font-variant-alternates:normal;font-feature-settings:normal;text-indent:0;text-align:start;text-decoration:none;text-decoration-line:none;text-decoration-style:solid;text-decoration-color:#000000;letter-spacing:normal;word-spacing:normal;text-transform:none;writing-mode:lr-tb;direction:ltr;text-orientation:mixed;dominant-baseline:auto;baseline-shift:baseline;text-anchor:start;white-space:normal;shape-padding:0;clip-rule:nonzero;display:inline;overflow:visible;visibility:visible;opacity:1;isolation:auto;mix-blend-mode:normal;color-interpolation:sRGB;color-interpolation-filters:linearRGB;solid-color:#000000;solid-opacity:1;vector-effect:none;fill:#000000;fill-opacity:1;fill-rule:nonzero;stroke:none;stroke-width:42.33333588;stroke-linecap:butt;stroke-linejoin:miter;stroke-miterlimit:4;stroke-dasharray:none;stroke-dashoffset:0;stroke-opacity:1;paint-order:normal;color-rendering:auto;image-rendering:auto;shape-rendering:auto;text-rendering:auto;enable-background:accumulate" />
    <path
       style="color:#000000;font-style:normal;font-variant:normal;font-weight:normal;font-stretch:normal;font-size:medium;line-height:normal;font-family:sans-serif;font-variant-ligatures:normal;font-variant-position:normal;font-variant-caps:normal;font-variant-numeric:normal;font-variant-alternates:normal;font-feature-settings:normal;text-indent:0;text-align:start;text-decoration:none;text-decoration-line:none;text-decoration-style:solid;text-decoration-color:#000000;letter-spacing:normal;word-spacing:normal;text-transform:none;writing-mode:lr-tb;direction:ltr;text-orientation:mixed;dominant-baseline:auto;baseline-shift:baseline;text-anchor:start;white-space:normal;shape-padding:0;clip-rule:nonzero;display:inline;overflow:visible;visibility:visible;opacity:1;isolation:auto;mix-blend-mode:normal;color-interpolation:sRGB;color-interpolation-filters:linearRGB;solid-color:#000000;solid-opacity:1;vector-effect:none;fill:#000000;fill-opacity:1;fill-rule:nonzero;stroke:none;stroke-width:42.33333588;stroke-linecap:butt;stroke-linejoin:miter;stroke-miterlimit:4;stroke-dasharray:none;stroke-dashoffset:0;stroke-opacity:1;paint-order:normal;color-rendering:auto;image-rendering:auto;shape-rendering:auto;text-rendering:auto;enable-background:accumulate"
       d="m 2448.7689,-1081.543 h -167.4865 v 65.6788 h 167.4865 z"
       id="path1043"
       inkscape:connector-curvature="0" />
    <path
       style="opacity:1;fill:none;fill-opacity:1;stroke:#ff1a1a;stroke-width:2.64583349;stroke-linecap:butt;stroke-linejoin:miter;stroke-miterlimit:4;stroke-dasharray:none;stroke-dashoffset:0;stroke-opacity:1;paint-order:normal"
       d="m 6394.9219,-882.91828 h 939.2354"
       id="path991"
       inkscape:connector-curvature="0" />
    <path
       sodipodi:nodetypes="cccccccccccccc"
       inkscape:connector-curvature="0"
       id="path1009"
       d="m 5551.973,-885.59098 h -61.2261 l 53.596,334.97213 h 64.5709 l 46.4541,-181.27383 46.451,181.27382 64.574,1e-5 53.5929,-334.97213 h -61.223 l -35.0707,210.04211 -36.9491,-180.53525 h -63.9164 l -35.7829,180.53525 z"
       style="color:#000000;font-style:normal;font-variant:normal;font-weight:normal;font-stretch:normal;font-size:medium;line-height:normal;font-family:sans-serif;font-variant-ligatures:normal;font-variant-position:normal;font-variant-caps:normal;font-variant-numeric:normal;font-variant-alternates:normal;font-feature-settings:normal;text-indent:0;text-align:start;text-decoration:none;text-decoration-line:none;text-decoration-style:solid;text-decoration-color:#000000;letter-spacing:normal;word-spacing:normal;text-transform:none;writing-mode:lr-tb;direction:ltr;text-orientation:mixed;dominant-baseline:auto;baseline-shift:baseline;text-anchor:start;white-space:normal;shape-padding:0;clip-rule:nonzero;display:inline;overflow:visible;visibility:visible;opacity:1;isolation:auto;mix-blend-mode:normal;color-interpolation:sRGB;color-interpolation-filters:linearRGB;solid-color:#000000;solid-opacity:1;vector-effect:none;fill:#000000;fill-opacity:1;fill-rule:nonzero;stroke:none;stroke-width:42.33333588;stroke-linecap:butt;stroke-linejoin:bevel;stroke-miterlimit:4;stroke-dasharray:none;stroke-dashoffset:0;stroke-opacity:1;paint-order:normal;color-rendering:auto;image-rendering:auto;shape-rendering:auto;text-rendering:auto;enable-background:accumulate" />
    <path
       inkscape:connector-curvature="0"
       id="path1053"
       d="m 6892.4541,-410.01642 h 939.2355"
       style="opacity:1;fill:none;fill-opacity:1;stroke:#ff1a1a;stroke-width:2.64583349;stroke-linecap:butt;stroke-linejoin:miter;stroke-miterlimit:4;stroke-dasharray:none;stroke-dashoffset:0;stroke-opacity:1;paint-order:normal" />
    <path
       style="color:#000000;font-style:normal;font-variant:normal;font-weight:normal;font-stretch:normal;font-size:medium;line-height:normal;font-family:sans-serif;font-variant-ligatures:normal;font-variant-position:normal;font-variant-caps:normal;font-variant-numeric:normal;font-variant-alternates:normal;font-feature-settings:normal;text-indent:0;text-align:start;text-decoration:none;text-decoration-line:none;text-decoration-style:solid;text-decoration-color:#000000;letter-spacing:normal;word-spacing:normal;text-transform:none;writing-mode:lr-tb;direction:ltr;text-orientation:mixed;dominant-baseline:auto;baseline-shift:baseline;text-anchor:start;white-space:normal;shape-padding:0;clip-rule:nonzero;display:inline;overflow:visible;visibility:visible;opacity:1;isolation:auto;mix-blend-mode:normal;color-interpolation:sRGB;color-interpolation-filters:linearRGB;solid-color:#000000;solid-opacity:1;vector-effect:none;fill:#061306;fill-opacity:1;fill-rule:nonzero;stroke:none;stroke-width:42.33333588;stroke-linecap:butt;stroke-linejoin:bevel;stroke-miterlimit:4;stroke-dasharray:none;stroke-dashoffset:0;stroke-opacity:1;paint-order:normal;color-rendering:auto;image-rendering:auto;shape-rendering:auto;text-rendering:auto;enable-background:accumulate"
       d="m 6082.5914,-889.26816 c -22.2589,36.17057 -44.5175,72.34113 -66.7764,108.5117 -20.956,-34.05391 -41.9123,-68.10779 -62.8684,-102.1617 -23.6747,0 -47.3493,0 -71.024,0 31.3624,52.26243 62.7248,104.52488 94.0872,156.78731 -36.5107,59.39483 -73.021,118.78966 -109.5317,178.18449 25.6535,0 51.3072,0 76.9607,0 23.5421,-38.25642 47.0844,-76.51281 70.6265,-114.76923 22.9574,38.25642 45.915,76.51281 68.8724,114.76923 25.382,0 50.7643,0 76.1463,0 -34.8956,-56.72677 -69.7915,-113.45354 -104.6872,-170.18031 35.1052,-57.04716 70.2104,-114.09434 105.3156,-171.14149 -25.7069,0 -51.4141,0 -77.121,0 z"
       id="path1055"
       inkscape:connector-curvature="0" />
    <path
       style="color:#000000;font-style:normal;font-variant:normal;font-weight:normal;font-stretch:normal;font-size:medium;line-height:normal;font-family:sans-serif;font-variant-ligatures:normal;font-variant-position:normal;font-variant-caps:normal;font-variant-numeric:normal;font-variant-alternates:normal;font-feature-settings:normal;text-indent:0;text-align:start;text-decoration:none;text-decoration-line:none;text-decoration-style:solid;text-decoration-color:#000000;letter-spacing:normal;word-spacing:normal;text-transform:none;writing-mode:lr-tb;direction:ltr;text-orientation:mixed;dominant-baseline:auto;baseline-shift:baseline;text-anchor:start;white-space:normal;shape-padding:0;clip-rule:nonzero;display:inline;overflow:visible;visibility:visible;opacity:1;isolation:auto;mix-blend-mode:normal;color-interpolation:sRGB;color-interpolation-filters:linearRGB;solid-color:#000000;solid-opacity:1;vector-effect:none;fill:#000000;fill-opacity:1;fill-rule:nonzero;stroke:none;stroke-width:42.33333588;stroke-linecap:butt;stroke-linejoin:miter;stroke-miterlimit:4;stroke-dasharray:none;stroke-dashoffset:0;stroke-opacity:1;paint-order:normal;color-rendering:auto;image-rendering:auto;shape-rendering:auto;text-rendering:auto;enable-background:accumulate"
       d="m 6237.2143,-882.91639 c 32.2902,56.9233 64.5803,128.13411 96.8705,185.05741 v 149.91283 h 65.7334 v -149.91283 c 29.5447,-56.93277 67.5804,-128.12464 97.1251,-185.05741 h -75.5677 c -17.9009,32.72168 -36.5817,79.73086 -54.4826,112.45254 l -54.1402,-112.45254 z"
       id="path1130"
       inkscape:connector-curvature="0"
       sodipodi:nodetypes="cccccccccc" />
    <path
       style="opacity:1;fill:none;fill-opacity:1;stroke:#ff1a1a;stroke-width:2.64583349;stroke-linecap:butt;stroke-linejoin:miter;stroke-miterlimit:4;stroke-dasharray:none;stroke-dashoffset:0;stroke-opacity:1;paint-order:normal"
       d="m 7757.7982,-547.94616 h 896.5431"
       id="path1211"
       inkscape:connector-curvature="0" />
    <path
       inkscape:connector-curvature="0"
       id="path1213"
       d="m 7708.538,-882.91828 h 939.2354"
       style="opacity:1;fill:none;fill-opacity:1;stroke:#ff1a1a;stroke-width:2.64583349;stroke-linecap:butt;stroke-linejoin:miter;stroke-miterlimit:4;stroke-dasharray:none;stroke-dashoffset:0;stroke-opacity:1;paint-order:normal" />
    <text
       xml:space="preserve"
       style="font-style:normal;font-variant:normal;font-weight:normal;font-stretch:normal;font-size:42.33333206px;line-height:125%;font-family:sans-serif;-inkscape-font-specification:'sans-serif, Normal';font-variant-ligatures:normal;font-variant-caps:normal;font-variant-numeric:normal;text-align:start;letter-spacing:0px;word-spacing:0px;writing-mode:lr-tb;text-anchor:start;fill:#000000;fill-opacity:1;stroke:none;stroke-width:0.26458332px;stroke-linecap:butt;stroke-linejoin:miter;stroke-opacity:1"
       x="-846.56812"
       y="-1080.2526"
       id="text1324"><tspan
         sodipodi:role="line"
         id="tspan1322"
         x="-846.56812"
         y="-1080.2526"
         style="font-size:42.33333206px;stroke-width:0.26458332px">Stroke width = 100</tspan></text>
    <path
       style="opacity:1;fill:none;fill-opacity:1;stroke:#000000;stroke-width:65.61666708;stroke-linecap:butt;stroke-linejoin:miter;stroke-miterlimit:4;stroke-dasharray:none;stroke-dashoffset:0;stroke-opacity:1;paint-order:normal"
       id="path1328"
       sodipodi:type="arc"
       sodipodi:cx="57.92318"
       sodipodi:cy="-1150.5842"
       sodipodi:rx="112.74039"
       sodipodi:ry="142.69295"
       sodipodi:start="3.9878545"
       sodipodi:end="2.3706678"
       d="m -16.799675,-1257.4339 a 112.74039,142.69295 0 0 1 157.978245,10.6338 112.74039,142.69295 0 0 1 -5.95781,200.09 112.74039,142.69295 0 0 1 -158.162488,-4.4458"
       transform="scale(-1,1)"
       sodipodi:open="true" />
    <path
       inkscape:connector-curvature="0"
       id="path1336"
       d="m 1242.2558,-1344.5388 v 334.9727 h 65.6787 v -334.9727 z"
       style="color:#000000;font-style:normal;font-variant:normal;font-weight:normal;font-stretch:normal;font-size:medium;line-height:normal;font-family:sans-serif;font-variant-ligatures:normal;font-variant-position:normal;font-variant-caps:normal;font-variant-numeric:normal;font-variant-alternates:normal;font-feature-settings:normal;text-indent:0;text-align:start;text-decoration:none;text-decoration-line:none;text-decoration-style:solid;text-decoration-color:#000000;letter-spacing:normal;word-spacing:normal;text-transform:none;writing-mode:lr-tb;direction:ltr;text-orientation:mixed;dominant-baseline:auto;baseline-shift:baseline;text-anchor:start;white-space:normal;shape-padding:0;clip-rule:nonzero;display:inline;overflow:visible;visibility:visible;opacity:1;isolation:auto;mix-blend-mode:normal;color-interpolation:sRGB;color-interpolation-filters:linearRGB;solid-color:#000000;solid-opacity:1;vector-effect:none;fill:#000000;fill-opacity:1;fill-rule:nonzero;stroke:none;stroke-width:42.33333588;stroke-linecap:butt;stroke-linejoin:miter;stroke-miterlimit:4;stroke-dasharray:none;stroke-dashoffset:0;stroke-opacity:1;paint-order:normal;color-rendering:auto;image-rendering:auto;shape-rendering:auto;text-rendering:auto;enable-background:accumulate" />
    <path
       style="color:#000000;font-style:normal;font-variant:normal;font-weight:normal;font-stretch:normal;font-size:medium;line-height:normal;font-family:sans-serif;font-variant-ligatures:normal;font-variant-position:normal;font-variant-caps:normal;font-variant-numeric:normal;font-variant-alternates:normal;font-feature-settings:normal;text-indent:0;text-align:start;text-decoration:none;text-decoration-line:none;text-decoration-style:solid;text-decoration-color:#000000;letter-spacing:normal;word-spacing:normal;text-transform:none;writing-mode:lr-tb;direction:ltr;text-orientation:mixed;dominant-baseline:auto;baseline-shift:baseline;text-anchor:start;white-space:normal;shape-padding:0;clip-rule:nonzero;display:inline;overflow:visible;visibility:visible;opacity:1;isolation:auto;mix-blend-mode:normal;color-interpolation:sRGB;color-interpolation-filters:linearRGB;solid-color:#000000;solid-opacity:1;vector-effect:none;fill:#000000;fill-opacity:1;fill-rule:nonzero;stroke:none;stroke-width:42.33333588;stroke-linecap:butt;stroke-linejoin:miter;stroke-miterlimit:4;stroke-dasharray:none;stroke-dashoffset:0;stroke-opacity:1;paint-order:normal;color-rendering:auto;image-rendering:auto;shape-rendering:auto;text-rendering:auto;enable-background:accumulate"
       d="m 1439.2861,-1344.5388 v 334.9727 h 65.6788 v -334.9727 z"
       id="path1338"
       inkscape:connector-curvature="0" />
    <path
       inkscape:connector-curvature="0"
       id="path1340"
       d="m 1465.5565,-1209.8925 h -170.77 v 65.6787 h 170.77 z"
       style="color:#000000;font-style:normal;font-variant:normal;font-weight:normal;font-stretch:normal;font-size:medium;line-height:normal;font-family:sans-serif;font-variant-ligatures:normal;font-variant-position:normal;font-variant-caps:normal;font-variant-numeric:normal;font-variant-alternates:normal;font-feature-settings:normal;text-indent:0;text-align:start;text-decoration:none;text-decoration-line:none;text-decoration-style:solid;text-decoration-color:#000000;letter-spacing:normal;word-spacing:normal;text-transform:none;writing-mode:lr-tb;direction:ltr;text-orientation:mixed;dominant-baseline:auto;baseline-shift:baseline;text-anchor:start;white-space:normal;shape-padding:0;clip-rule:nonzero;display:inline;overflow:visible;visibility:visible;opacity:1;isolation:auto;mix-blend-mode:normal;color-interpolation:sRGB;color-interpolation-filters:linearRGB;solid-color:#000000;solid-opacity:1;vector-effect:none;fill:#000000;fill-opacity:1;fill-rule:nonzero;stroke:none;stroke-width:42.33333588;stroke-linecap:butt;stroke-linejoin:miter;stroke-miterlimit:4;stroke-dasharray:none;stroke-dashoffset:0;stroke-opacity:1;paint-order:normal;color-rendering:auto;image-rendering:auto;shape-rendering:auto;text-rendering:auto;enable-background:accumulate" />
    <path
       inkscape:connector-curvature="0"
       id="path1343"
       d="m 1573.7262,-882.926 v 334.97274 h 65.6788 V -882.926 Z"
       style="color:#000000;font-style:normal;font-variant:normal;font-weight:normal;font-stretch:normal;font-size:medium;line-height:normal;font-family:sans-serif;font-variant-ligatures:normal;font-variant-position:normal;font-variant-caps:normal;font-variant-numeric:normal;font-variant-alternates:normal;font-feature-settings:normal;text-indent:0;text-align:start;text-decoration:none;text-decoration-line:none;text-decoration-style:solid;text-decoration-color:#000000;letter-spacing:normal;word-spacing:normal;text-transform:none;writing-mode:lr-tb;direction:ltr;text-orientation:mixed;dominant-baseline:auto;baseline-shift:baseline;text-anchor:start;white-space:normal;shape-padding:0;clip-rule:nonzero;display:inline;overflow:visible;visibility:visible;opacity:1;isolation:auto;mix-blend-mode:normal;color-interpolation:sRGB;color-interpolation-filters:linearRGB;solid-color:#000000;solid-opacity:1;vector-effect:none;fill:#000000;fill-opacity:1;fill-rule:nonzero;stroke:none;stroke-width:42.33333588;stroke-linecap:butt;stroke-linejoin:miter;stroke-miterlimit:4;stroke-dasharray:none;stroke-dashoffset:0;stroke-opacity:1;paint-order:normal;color-rendering:auto;image-rendering:auto;shape-rendering:auto;text-rendering:auto;enable-background:accumulate" />
    <path
       style="color:#000000;font-style:normal;font-variant:normal;font-weight:normal;font-stretch:normal;font-size:medium;line-height:normal;font-family:sans-serif;font-variant-ligatures:normal;font-variant-position:normal;font-variant-caps:normal;font-variant-numeric:normal;font-variant-alternates:normal;font-feature-settings:normal;text-indent:0;text-align:start;text-decoration:none;text-decoration-line:none;text-decoration-style:solid;text-decoration-color:#000000;letter-spacing:normal;word-spacing:normal;text-transform:none;writing-mode:lr-tb;direction:ltr;text-orientation:mixed;dominant-baseline:auto;baseline-shift:baseline;text-anchor:start;white-space:normal;shape-padding:0;clip-rule:nonzero;display:inline;overflow:visible;visibility:visible;opacity:1;isolation:auto;mix-blend-mode:normal;color-interpolation:sRGB;color-interpolation-filters:linearRGB;solid-color:#000000;solid-opacity:1;vector-effect:none;fill:#000000;fill-opacity:1;fill-rule:nonzero;stroke:none;stroke-width:160.00001526;stroke-linecap:butt;stroke-linejoin:miter;stroke-miterlimit:4;stroke-dasharray:none;stroke-dashoffset:0;stroke-opacity:1;paint-order:normal;color-rendering:auto;image-rendering:auto;shape-rendering:auto;text-rendering:auto;enable-background:accumulate"
       d="M 8609.7676 -2462.0801 L 8609.7676 -1196.043 L 8622.1699 -1196.043 L 8858.002 -1196.043 L 9320.3105 -1196.043 L 9320.3105 -1444.2773 L 8858.002 -1444.2773 L 8858.002 -2462.0801 L 8609.7676 -2462.0801 z "
       transform="matrix(0.26458333,0,0,0.26458333,0,-232.16668)"
       id="path1387" />
    <path
       d="m -4470.9086,-1735.0702 a 59.054676,62.028202 0 0 1 59.8867,20.9819 59.054676,62.028202 0 0 1 7.6192,65.8246 59.054676,62.028202 0 0 1 -53.3556,35.4429"
       sodipodi:end="1.5707963"
       sodipodi:start="4.4704216"
       sodipodi:ry="62.028202"
       sodipodi:rx="59.054676"
       sodipodi:cy="-1674.849"
       sodipodi:cx="-4456.7583"
       sodipodi:type="arc"
       id="path1438"
       style="opacity:1;fill:none;fill-opacity:1;stroke:#000000;stroke-width:65.6166687;stroke-linecap:butt;stroke-linejoin:miter;stroke-miterlimit:4;stroke-dasharray:none;stroke-dashoffset:0;stroke-opacity:1;paint-order:normal"
       transform="scale(-1,1)"
       sodipodi:open="true" />
    <path
       style="opacity:1;fill:none;fill-opacity:1;stroke:#000000;stroke-width:65.6166687;stroke-linecap:butt;stroke-linejoin:miter;stroke-miterlimit:4;stroke-dasharray:none;stroke-dashoffset:0;stroke-opacity:1;paint-order:normal"
       d="m 4470.9087,-1735.0702 c 12.6155,3.1568 32.6751,13.2867 42.9185,30.4186"
       id="path1440"
       inkscape:connector-curvature="0"
       sodipodi:nodetypes="cc" />
    <path
       style="opacity:1;fill:none;fill-opacity:1;stroke:#000000;stroke-width:65.6166687;stroke-linecap:butt;stroke-linejoin:miter;stroke-miterlimit:4;stroke-dasharray:none;stroke-dashoffset:0;stroke-opacity:1;paint-order:normal"
       id="path1446"
       sodipodi:type="arc"
       sodipodi:cx="4454.1597"
       sodipodi:cy="-1537.1666"
       sodipodi:rx="72.248886"
       sodipodi:ry="75.559601"
       sodipodi:start="4.712389"
       sodipodi:end="2.2362677"
       d="m 4454.1597,-1612.7262 a 72.248886,75.559601 0 0 1 68.984,53.1021 72.248886,75.559601 0 0 1 -27.9778,84.6677 72.248886,75.559601 0 0 1 -85.6149,-2.7731"
       sodipodi:open="true" />
    <path
       inkscape:connector-curvature="0"
       id="path1448"
       d="m 4409.5512,-1477.7296 c -8.6937,-7.0837 -22.8733,-22.4515 -26.0932,-32.4331"
       style="opacity:1;fill:none;fill-opacity:1;stroke:#000000;stroke-width:65.6166687;stroke-linecap:butt;stroke-linejoin:miter;stroke-miterlimit:4;stroke-dasharray:none;stroke-dashoffset:0;stroke-opacity:1;paint-order:normal"
       sodipodi:nodetypes="cc" />
    <path
       sodipodi:nodetypes="cc"
       inkscape:connector-curvature="0"
       id="path1450"
       d="m 4470.9087,-1735.0702 c 12.6155,3.1568 32.6751,13.2867 42.9185,30.4186"
       style="opacity:1;fill:none;fill-opacity:1;stroke:#000000;stroke-width:65.6166687;stroke-linecap:butt;stroke-linejoin:miter;stroke-miterlimit:4;stroke-dasharray:none;stroke-dashoffset:0;stroke-opacity:1;paint-order:normal" />
    <path
       style="color:#000000;font-style:normal;font-variant:normal;font-weight:normal;font-stretch:normal;font-size:medium;line-height:normal;font-family:sans-serif;font-variant-ligatures:normal;font-variant-position:normal;font-variant-caps:normal;font-variant-numeric:normal;font-variant-alternates:normal;font-feature-settings:normal;text-indent:0;text-align:start;text-decoration:none;text-decoration-line:none;text-decoration-style:solid;text-decoration-color:#000000;letter-spacing:normal;word-spacing:normal;text-transform:none;writing-mode:lr-tb;direction:ltr;text-orientation:mixed;dominant-baseline:auto;baseline-shift:baseline;text-anchor:start;white-space:normal;shape-padding:0;clip-rule:nonzero;display:inline;overflow:visible;visibility:visible;opacity:1;isolation:auto;mix-blend-mode:normal;color-interpolation:sRGB;color-interpolation-filters:linearRGB;solid-color:#000000;solid-opacity:1;vector-effect:none;fill:#000000;fill-opacity:1;fill-rule:nonzero;stroke:none;stroke-width:42.33333588;stroke-linecap:butt;stroke-linejoin:bevel;stroke-miterlimit:4;stroke-dasharray:none;stroke-dashoffset:0;stroke-opacity:1;paint-order:normal;color-rendering:auto;image-rendering:auto;shape-rendering:auto;text-rendering:auto;enable-background:accumulate"
       d="m 5561.2265,-1505.8486 h -66.5178 l 53.596,334.9721 h 64.5709 l 46.4541,-147.0965 46.451,147.0965 64.574,0 53.5929,-334.9721 h -66.5147 l -29.779,186.118 -37.009,-117.1909 h -62.6335 l -37.0059,117.1909 z"
       id="path1487"
       inkscape:connector-curvature="0"
       sodipodi:nodetypes="cccccccccccccc" />
    <path
       style="color:#000000;font-style:normal;font-variant:normal;font-weight:normal;font-stretch:normal;font-size:medium;line-height:normal;font-family:sans-serif;font-variant-ligatures:normal;font-variant-position:normal;font-variant-caps:normal;font-variant-numeric:normal;font-variant-alternates:normal;font-feature-settings:normal;text-indent:0;text-align:start;text-decoration:none;text-decoration-line:none;text-decoration-style:solid;text-decoration-color:#000000;letter-spacing:normal;word-spacing:normal;text-transform:none;writing-mode:lr-tb;direction:ltr;text-orientation:mixed;dominant-baseline:auto;baseline-shift:baseline;text-anchor:start;white-space:normal;shape-padding:0;clip-rule:nonzero;display:inline;overflow:visible;visibility:visible;opacity:1;isolation:auto;mix-blend-mode:normal;color-interpolation:sRGB;color-interpolation-filters:linearRGB;solid-color:#000000;solid-opacity:1;vector-effect:none;fill:#000000;fill-opacity:1;fill-rule:nonzero;stroke:none;stroke-width:42.33333588;stroke-linecap:butt;stroke-linejoin:bevel;stroke-miterlimit:4;stroke-dasharray:none;stroke-dashoffset:0;stroke-opacity:1;paint-order:normal;color-rendering:auto;image-rendering:auto;shape-rendering:auto;text-rendering:auto;enable-background:accumulate"
       d="m 5551.973,-1963.8479 h -61.2261 l 53.596,334.9721 h 64.5709 l 46.4541,-181.2738 46.451,181.2738 64.574,0 53.5929,-334.9721 h -61.223 l -35.0707,210.0421 -36.9491,-180.5352 h -63.9164 l -35.7829,180.5352 z"
       id="path1489"
       inkscape:connector-curvature="0"
       sodipodi:nodetypes="cccccccccccccc" />
    <path
       sodipodi:nodetypes="ccccccccccccccccccc"
       id="path1491"
       d="m 5881.9226,-1463.9339 201.0153,334.9721 h 76.1462 l -102.7535,-166.9737 0.02,-0.031 -38.5624,-62.6614 -0.02,0.029 -64.8217,-105.3354 z m 200.6688,-6.35 -72.1913,117.311 38.5628,62.6606 110.7497,-179.9716 z m -100.629,153.4537 -115.4841,187.8684 h 76.9606 l 76.5818,-124.447 z"
       style="color:#000000;font-style:normal;font-variant:normal;font-weight:normal;font-stretch:normal;font-size:medium;line-height:normal;font-family:sans-serif;font-variant-ligatures:normal;font-variant-position:normal;font-variant-caps:normal;font-variant-numeric:normal;font-variant-alternates:normal;font-feature-settings:normal;text-indent:0;text-align:start;text-decoration:none;text-decoration-line:none;text-decoration-style:solid;text-decoration-color:#000000;letter-spacing:normal;word-spacing:normal;text-transform:none;writing-mode:lr-tb;direction:ltr;text-orientation:mixed;dominant-baseline:auto;baseline-shift:baseline;text-anchor:start;white-space:normal;shape-padding:0;clip-rule:nonzero;display:inline;overflow:visible;visibility:visible;opacity:1;isolation:auto;mix-blend-mode:normal;color-interpolation:sRGB;color-interpolation-filters:linearRGB;solid-color:#000000;solid-opacity:1;vector-effect:none;fill:#061306;fill-opacity:1;fill-rule:nonzero;stroke:none;stroke-width:42.33333588;stroke-linecap:butt;stroke-linejoin:bevel;stroke-miterlimit:4;stroke-dasharray:none;stroke-dashoffset:0;stroke-opacity:1;paint-order:normal;color-rendering:auto;image-rendering:auto;shape-rendering:auto;text-rendering:auto;enable-background:accumulate"
       inkscape:connector-curvature="0" />
    <path
       style="color:#000000;font-style:normal;font-variant:normal;font-weight:normal;font-stretch:normal;font-size:medium;line-height:normal;font-family:sans-serif;font-variant-ligatures:normal;font-variant-position:normal;font-variant-caps:normal;font-variant-numeric:normal;font-variant-alternates:normal;font-feature-settings:normal;text-indent:0;text-align:start;text-decoration:none;text-decoration-line:none;text-decoration-style:solid;text-decoration-color:#000000;letter-spacing:normal;word-spacing:normal;text-transform:none;writing-mode:lr-tb;direction:ltr;text-orientation:mixed;dominant-baseline:auto;baseline-shift:baseline;text-anchor:start;white-space:normal;shape-padding:0;clip-rule:nonzero;display:inline;overflow:visible;visibility:visible;opacity:1;isolation:auto;mix-blend-mode:normal;color-interpolation:sRGB;color-interpolation-filters:linearRGB;solid-color:#000000;solid-opacity:1;vector-effect:none;fill:#1f0000;fill-opacity:1;fill-rule:nonzero;stroke:none;stroke-width:42.33333588;stroke-linecap:butt;stroke-linejoin:bevel;stroke-miterlimit:4;stroke-dasharray:none;stroke-dashoffset:0;stroke-opacity:1;paint-order:normal;color-rendering:auto;image-rendering:auto;shape-rendering:auto;text-rendering:auto;enable-background:accumulate"
       d="m 6547.0327,-882.91816 c 0,21.89305 0,43.78613 0,65.67918 45.3652,0 90.7304,0 136.0956,0 -47.5541,67.87097 -95.1084,135.74194 -142.6625,203.61291 0,21.89324 0,43.78648 0,65.67971 74.4384,0 148.8771,0 223.3155,0 0,-21.89323 0,-43.78647 0,-65.67971 -45.3644,0 -90.7286,0 -136.093,0 47.5533,-67.87097 95.1069,-135.74194 142.6602,-203.61291 0,-21.89305 0,-43.78613 0,-65.67918 -74.4387,0 -148.8771,0 -223.3158,0 z"
       id="path1498"
       inkscape:connector-curvature="0" />
    <path
       style="color:#000000;font-style:normal;font-variant:normal;font-weight:normal;font-stretch:normal;font-size:medium;line-height:normal;font-family:sans-serif;font-variant-ligatures:normal;font-variant-position:normal;font-variant-caps:normal;font-variant-numeric:normal;font-variant-alternates:normal;font-feature-settings:normal;text-indent:0;text-align:start;text-decoration:none;text-decoration-line:none;text-decoration-style:solid;text-decoration-color:#000000;letter-spacing:normal;word-spacing:normal;text-transform:none;writing-mode:lr-tb;direction:ltr;text-orientation:mixed;dominant-baseline:auto;baseline-shift:baseline;text-anchor:start;white-space:normal;shape-padding:0;clip-rule:nonzero;display:inline;overflow:visible;visibility:visible;opacity:1;isolation:auto;mix-blend-mode:normal;color-interpolation:sRGB;color-interpolation-filters:linearRGB;solid-color:#000000;solid-opacity:1;vector-effect:none;fill:#010101;fill-opacity:1;fill-rule:nonzero;stroke:none;stroke-width:26.45833015;stroke-linecap:butt;stroke-linejoin:miter;stroke-miterlimit:4;stroke-dasharray:none;stroke-dashoffset:0;stroke-opacity:1;paint-order:normal;color-rendering:auto;image-rendering:auto;shape-rendering:auto;text-rendering:auto;enable-background:accumulate"
       d="m -661.78784,-875.77693 113.07442,300.2121 h -55.72115 l 9.69709,26.4573 h 84.28736 l -123.05522,-317.20279 z m -34.92554,64.5156 -39.76324,105.37474 28.17193,0.28371 25.76821,-68.28243 z m -59.66436,158.10847 -29.27728,77.58803 h -61.0526 v 26.4573 h 79.34761 l 29.27935,-77.58803 h 115.03948 l -9.17101,-26.4573 z"
       id="path932"
       inkscape:connector-curvature="0"
       sodipodi:nodetypes="ccccccccccccccccccccc" />
    <g
       id="g1027"
       transform="matrix(0.26458333,0,0,-0.26458333,-515.68767,-571.68032)">
      <path
         id="path1025-3"
         d="m 797,1149 99,-98.9844 c 57.9844,-64.0156 94,-150 94,-242.016 0,-87 -31,-167 -83,-228.984 72,-72.0156 117,-172.016 117,-281.016 0,-102 -39,-196 -103,-266.984 C 857,-38 737,-99.0004 624,-99.0004 H 170.984 L 71.9996,-4e-4 73,1 H 525 C 637.672,1 757.469,61.8906 821.266,130.688 885.0941,201.4849 924,295.25 924,397 924,505.719 879.125,605.469 807.297,677.297 l -0.65625,0.64063 0.59375,0.70312 c 51.8594,61.8281 82.7656,141.594 82.7656,228.359 0,91.7344 -35.8906,177.46905 -93.7031,241.29705 z M 642.453,919.00025 c 0,0 -13.38032,2.56684 -15.20844,2.66054 L 418.99988,919.00025 V 792.99997 H 372.6422 318.9999 V 840.626 1018 H 319 v 1 h 1 l 218,-0.016 h 0.0469 c 56.51321,-2.8154 99.85633,-44.35115 105.36146,-99.92614 z M 410.83857,247 H 319 v 1 298 1 h 1 208 c 69.29003,0 125.75562,-43.96189 143.87821,-106.36711 L 670.781,440.797 c -13.7656,4.04688 -28.4688,6.21875 -43.7812,6.21875 h -208 V 247 Z"
         inkscape:connector-curvature="0"
         style="fill:currentColor"
         sodipodi:nodetypes="ccscscscccscscccscccccccccccccccccccccccsccsccc" />
    </g>
    <text
       xml:space="preserve"
       style="font-style:normal;font-variant:normal;font-weight:normal;font-stretch:normal;font-size:35.27777863px;line-height:125%;font-family:sans-serif;-inkscape-font-specification:'sans-serif, Normal';font-variant-ligatures:normal;font-variant-caps:normal;font-variant-numeric:normal;text-align:start;letter-spacing:0px;word-spacing:0px;writing-mode:lr-tb;text-anchor:start;fill:#000000;fill-opacity:1;stroke:none;stroke-width:0.26458332px;stroke-linecap:butt;stroke-linejoin:miter;stroke-opacity:1"
       x="-875.75122"
       y="-1294.7253"
       id="text1041"><tspan
         sodipodi:role="line"
         id="tspan1039"
         x="-875.75122"
         y="-1294.7253"
         style="font-size:35.27777863px;stroke-width:0.26458332px">Fontforge shadow options:</tspan><tspan
         sodipodi:role="line"
         x="-875.75122"
         y="-1250.6281"
         style="font-size:35.27777863px;stroke-width:0.26458332px"
         id="tspan1043">     -outline width = 1</tspan><tspan
         sodipodi:role="line"
         x="-875.75122"
         y="-1206.5309"
         style="font-size:35.27777863px;stroke-width:0.26458332px"
         id="tspan1045">     -shadow length = 140</tspan><tspan
         sodipodi:role="line"
         x="-875.75122"
         y="-1162.4336"
         style="font-size:35.27777863px;stroke-width:0.26458332px"
         id="tspan1047">     -light angle = -45</tspan></text>
    <g
       transform="matrix(0.26458333,0,0,-0.26458333,-515.68767,-571.68032)"
       id="g1051">
      <path
         sodipodi:nodetypes="ccscscscccscscccscccccccccccccccccccccccsccsccc"
         style="fill:currentColor"
         inkscape:connector-curvature="0"
         d="m 797,1149 99,-98.9844 c 57.9844,-64.0156 94,-150 94,-242.016 0,-87 -31,-167 -83,-228.984 72,-72.0156 117,-172.016 117,-281.016 0,-102 -39,-196 -103,-266.984 C 857,-38 737,-99.0004 624,-99.0004 H 170.984 L 71.9996,-4e-4 73,1 H 525 C 637.672,1 757.469,61.8906 821.266,130.688 885.0941,201.4849 924,295.25 924,397 924,505.719 879.125,605.469 807.297,677.297 l -0.65625,0.64063 0.59375,0.70312 c 51.8594,61.8281 82.7656,141.594 82.7656,228.359 0,91.7344 -35.8906,177.46905 -93.7031,241.29705 z M 642.453,919.00025 c 0,0 -13.38032,2.56684 -15.20844,2.66054 L 418.99988,919.00025 V 792.99997 H 372.6422 318.9999 V 840.626 1018 H 319 v 1 h 1 l 218,-0.016 h 0.0469 c 56.51321,-2.8154 99.85633,-44.35115 105.36146,-99.92614 z M 410.83857,247 H 319 v 1 298 1 h 1 208 c 69.29003,0 125.75562,-43.96189 143.87821,-106.36711 L 670.781,440.797 c -13.7656,4.04688 -28.4688,6.21875 -43.7812,6.21875 h -208 V 247 Z"
         id="path1049" />
    </g>
    <g
       id="g1075"
       transform="matrix(0.26458333,0,0,-0.26458333,-235.85357,-575.52452)">
      <path
         id="path1073"
         d="M 249.3064,130.16056 C 324.85796,55.724021 416.37858,6.5715508 511.95145,-12.311205 585.64773,-29.747506 660.9876,-12.912451 726.5077,8.3353202 842.22431,46.294752 942.06687,111.43135 1003.3237,190.75691 c 33.1449,-33.32163 66.4273,-66.51842 99.6601,-99.75641 -102.984,-133.984 -246.984,-212 -404,-212 -128.031,0 -255.281,55.3281 -354.438,154.484 l -99,99 z m 823.6932,882.83954 -185,-166 -29.5781,29.5781 c -51.2344,45.5 -104.828,64.4375 -158.438,64.4219 -80.9844,0 -152.984,-37 -215.984,-124 -57,-78.9844 -84.0156,-184 -84.0156,-289 0.0156,-101.469 25.5781,-191.641 76.12397,-266.03588 L 446.984,283.0161 c -7.7344,6.3593 -15.39065,13.31245 -22.9844,20.9062 -7.4219,7.4219 -15.51994,14.80342 -22.76777,23.43987 C 334.0621,407.5611 300,509.811 300,626.999 c 0,105.156 27.0312,210.375 84.2031,289.594 63.1406,87.1875 135.469,124.406 216.797,124.406 64.0625,0.016 127.906,-26.7812 188.078,-93.5938 60.89796,55.6763 123.56409,109.4331 184.24577,165.3444 33.15673,-33.3136 66.43883,-66.5126 99.67573,-99.7495 z"
         inkscape:connector-curvature="0"
         style="fill:currentColor;stroke:none;stroke-width:10;stroke-miterlimit:4;stroke-dasharray:none;stroke-opacity:1"
         sodipodi:nodetypes="ccccccsccccscccccsccssccc" />
    </g>
    <g
       transform="matrix(0.26458333,0,0,-0.26458333,-231.28956,-172.37281)"
       id="g1089">
      <path
         sodipodi:nodetypes="ccccccsccccscccccsccssccc"
         style="fill:currentColor;stroke:none;stroke-width:10;stroke-miterlimit:4;stroke-dasharray:none;stroke-opacity:1"
         inkscape:connector-curvature="0"
         d="M 249.3064,130.16056 C 324.85796,55.724021 416.37858,6.5715508 511.95145,-12.311205 585.64773,-29.747506 660.9876,-12.912451 726.5077,8.3353202 842.22431,46.294752 942.06687,111.43135 1003.3237,190.75691 c 33.1449,-33.32163 66.4273,-66.51842 99.6601,-99.75641 -102.984,-133.984 -246.984,-212 -404,-212 -128.031,0 -255.281,55.3281 -354.438,154.484 l -99,99 z m 823.6932,882.83954 -185,-166 -29.5781,29.5781 c -51.2344,45.5 -104.828,64.4375 -158.438,64.4219 -80.9844,0 -152.984,-37 -215.984,-124 -57,-78.9844 -84.0156,-184 -84.0156,-289 0.0156,-101.469 25.5781,-191.641 76.12397,-266.03588 L 446.984,283.0161 c -7.7344,6.3593 -15.39065,13.31245 -22.9844,20.9062 -7.4219,7.4219 -15.51994,14.80342 -22.76777,23.43987 C 334.0621,407.5611 300,509.811 300,626.999 c 0,105.156 27.0312,210.375 84.2031,289.594 63.1406,87.1875 135.469,124.406 216.797,124.406 64.0625,0.016 127.906,-26.7812 188.078,-93.5938 60.89796,55.6763 123.56409,109.4331 184.24577,165.3444 33.15673,-33.3136 66.43883,-66.5126 99.67573,-99.7495 z"
         id="path1087" />
    </g>
    <g
       id="g1102"
       transform="matrix(0.26458333,0,0,-0.26458333,-876.75898,-136.73151)">
      <path
         id="path1100"
         d="m 709.10116,763.07107 -0.40385,-0.99975 H 571.35054 l 0.51562,1.34375 136,361.00003 0.95312,2.5312 77.6227,-159.20966 z m -130.297,-347.00001 -113,-298 h -265 l -99.42165,100.00001 h 264.73465 l 112.75,297.344 0.25,0.64062 h 0.6875 l 450.984,0.0156 h 0.70313 L 969.54793,416.07106 Z M 1302.3518,218.07107 825.11778,1482.0711 l 0.68638,0.9996 99,-99 477.98404,-1266.00004 h -264.984 l -99.9213,100.00041 z"
         inkscape:connector-curvature="0"
         style="fill:currentColor"
         sodipodi:nodetypes="cccccccccccccccccccccccccccc" />
    </g>
    <g
       id="g1847"
       transform="matrix(0.26458333,0,0,-0.26458333,76.307314,-566.87072)">
      <path
         id="path1845"
         d="M 86.949428,1 H 470 c 322.344,0 570,291.453 570,630 -20.1844,179.77713 -84.82413,363.77478 -189.80821,473.4082 32.19966,-31.286 66.23398,-66.4149 98.74579,-99.3137 C 1066.4247,886.20888 1140,715.782 1139.985,532.016 1140.0006,193 892.001,-99 569.001,-99 H 170.985 L 88.575694,-16.577707 71.437495,1 Z M 418.92181,247 372.14094,247 319,247 v 1 770 1 h 1 150 c 99.67102,0 192.81191,-56.14041 253.41331,-146.56011 L 722.562,871.906 c -46.375,30.2031 -99,47.0938 -153.578,47.0938 H 419 l 0,-650.17033 z"
         inkscape:connector-curvature="0"
         style="fill:currentColor"
         sodipodi:nodetypes="csccccscccccccccccsccsccc" />
    </g>
    <g
       id="g1870"
       transform="matrix(0.26458333,0,0,-0.26458333,-1881.9978,-563.60258)">
      <path
         id="path1868"
         d="M 176.78387,1319 H 311.578 L 580.41123,1598.5888 680,1499 411,1219 H 188 l -99.566855,100 z"
         inkscape:connector-curvature="0"
         style="fill:currentColor"
         sodipodi:nodetypes="cccccccc" />
    </g>
    <g
       id="g947"
       transform="matrix(0.26458333,0,0,-0.26458333,370.80221,-569.78136)"
       style="stroke:none">
      <path
         id="path945"
         d="m 915.9996,247.9996 99,-98.98439 -0.016,-248.016005 H 170.98358 l -98.9844,99 L 73,1 h 841.984 l 0.0156,246 v 0 0 z M 419,766 H 347.70647 319 l 0,36.24565 L 319,1018 v 1 h 1 595 v 246 l 1,1 99,-99 V 919 H 419 v -83.72767 z m 333.984,1 99,-99 0.0156,-248 -433,0.0156 V 255.95077 247 h -9.87873 -89.12127 -1 v 1 271 1 h 1 432 l -0.0156,246 z"
         inkscape:connector-curvature="0"
         style="fill:currentColor;stroke:none;stroke-width:5;stroke-miterlimit:4;stroke-dasharray:none;stroke-opacity:1"
         sodipodi:nodetypes="cccccccccccccccccccccccccccccccccccccccccc" />
    </g>
    <text
       xml:space="preserve"
       style="font-style:normal;font-variant:normal;font-weight:normal;font-stretch:normal;font-size:22.57777786px;line-height:125%;font-family:sans-serif;-inkscape-font-specification:'sans-serif, Normal';font-variant-ligatures:normal;font-variant-caps:normal;font-variant-numeric:normal;text-align:start;letter-spacing:0px;word-spacing:0px;writing-mode:lr-tb;text-anchor:start;fill:#000000;fill-opacity:1;stroke:none;stroke-width:0.26458332px;stroke-linecap:butt;stroke-linejoin:miter;stroke-opacity:1"
       x="-630.61853"
       y="-1374.3116"
       id="text961"><tspan
         sodipodi:role="line"
         id="tspan959"
         x="-630.61853"
         y="-1374.3116"
         style="font-size:22.57777786px;stroke-width:0.26458332px">Alt-J, Alt-bksp</tspan></text>
    <g
       id="g974"
       transform="matrix(0.26458333,0,0,-0.26458333,660.26637,-564.27963)">
      <path
         id="path972"
         d="m 916,1266 99,-99 V 919 H 419 v -185 0 -0.9844 H 394.01547 319.0004 v 1 283.984 1 h 1 595 v 246 M 743,734 841.9844,635 V 387.016 l -422.984,-0.0156 V -98.999625 H 170.9844 L 72,1 H 93.054208 319.016 l -0.0156,485 v 1 h 1 422 v 199.44052"
         inkscape:connector-curvature="0"
         style="fill:currentColor"
         sodipodi:nodetypes="ccccccccccccccccccccccccccccc" />
    </g>
    <g
       id="g999"
       transform="matrix(0.26458333,0,0,-0.26458333,922.96559,-570.33668)">
      <path
         id="path997"
         d="M 477.57018,256.18388 C 452.08136,272.11433 427.12897,293.83008 403.234,322.344 336.0621,402.5628 301,506.797 301,624 c 0,105.172 28.0312,215.359 85.2031,294.594 63.125,87.1875 134.438,124.406 215.797,124.406 64.0625,0 128.891,-26.7812 189.078,-93.5938 l 184.31874,165.1967 99.60236,-99.6024 -185,-166 -29.0156,29.0156 c -51.6562,45.8906 -106.188,64.9844 -159.984,64.9844 -81.0156,0 -152,-37 -215,-124 -57,-78.9844 -85,-188.984 -85,-294 0,-101.484 26.3281,-193.188 77.0469,-267.938 M 786.21354,401 h -30.21401 l -99,100 h 5.88971 11.1736 87.60979 H 808 v -28.87211 c 0,-21.0312 -1,-16.14349 -1,-39.12789 0,-10.86371 0.0818,-21.60292 0.19861,-32 z m 268.78596,319 98.9844,-99 c 0.016,-128 0.016,-256 0.016,-383.984 -0.016,-71.0156 -31.0156,-118.016 -50,-151.016 -103,-134 -247.01605,-212 -404.01605,-212 -128.031,0 -255.281,55.3281 -354.438,154.484 l -99,98.9844 C 345.36364,29.218364 473.75374,-26 601,-26 c 156.609,0 300.453,77.9062 403.125,211.5 19.0312,33.0469 49.875,79.7969 49.875,150.516 V 719 Z"
         inkscape:connector-curvature="0"
         style="fill:currentColor"
         sodipodi:nodetypes="ccccscccccccscsccccccccssccccccsccscc" />
    </g>
    <g
       id="g952"
       transform="matrix(0.26458333,0,0,-0.26458333,1680.8186,-149.10461)">
      <path
         id="path950-3"
         d="M 157.80269,105.34945 C 226.49839,33.785232 322.03394,-13.007719 435,-13 c 234.359,0 393,201.469 393,408 l 1,870 1,1 99,-99 -1,-871 C 927.98437,89 768.984,-113 533.984,-113 423.875,-113 330.234,-68.6562 261.796,-0.219 l -99,99 z M 287.999,395 l 99,-99 c 0,-19.7031 3.40159,-39.28282 9.79688,-57.6719 0.17088,-0.49134 0.69231,-1.25986 0.69231,-1.25986 C 330.37568,255.8634 287.49164,323.95939 287,394 Z"
         inkscape:connector-curvature="0"
         style="fill:currentColor"
         sodipodi:nodetypes="cccccccscccccsccc" />
    </g>
    <g
       transform="matrix(0.26458333,0,0,-0.26458333,1680.8186,-557.46537)"
       id="g966">
      <path
         sodipodi:nodetypes="cccccccscccsccc"
         style="fill:currentColor"
         inkscape:connector-curvature="0"
         d="M 157.80269,105.34945 C 226.49839,33.785232 322.03394,-13.007719 435,-13 c 234.359,0 393,201.469 393,408 l 1,870 1,1 99,-99 -1,-871 C 927.98437,89 768.97752,-114.74558 533.984,-113 369.7292,-111.77988 248.86378,-12.583436 157.80269,105.34945 Z M 287.05188,431.65933 386.999,332.11812 c 0,-19.7031 3.40159,-75.40094 9.79688,-93.79002 0.17088,-0.49134 0.69231,-1.25986 0.69231,-1.25986 C 330.37568,255.8634 287.49164,323.95939 287,394 Z"
         id="path964" />
    </g>
    <g
       id="g981"
       transform="matrix(0.26458333,0,0,-0.26458333,1680.8186,-557.46537)">
      <path
         id="path979"
         d="M 157.80269,105.34945 C 226.49839,33.785232 322.03394,-13.007719 435,-13 c 234.359,0 393,201.469 393,408 l 1,870 1,1 99,-99 -1,-871 C 927.98437,89 768.97752,-114.74558 533.984,-113 369.7292,-111.77988 248.86378,-12.583436 157.80269,105.34945 Z M 287.05188,431.65933 386.999,332.11812 c 0,-19.7031 3.40159,-75.40094 9.79688,-93.79002 0.17088,-0.49134 0.69231,-1.25986 0.69231,-1.25986 C 330.37568,255.8634 287.49164,323.95939 287,394 Z"
         inkscape:connector-curvature="0"
         style="fill:currentColor"
         sodipodi:nodetypes="cccccccscccsccc" />
    </g>
    <path
       sodipodi:nodetypes="ccccccccccccccccccccccccccc"
       style="fill:currentColor;stroke-width:0.26458332"
       inkscape:connector-curvature="0"
       d="m 2205.9832,-897.34545 26.7052,25.92459 -115.8875,158.75423 123.825,176.2125 h -80.1688 l -26.1896,-26.19375 0.1325,-0.26352 h 79.5237 c -41.2152,-58.6486 -82.4238,-117.30355 -123.6429,-175.94792 38.5643,-52.82988 77.1286,-105.65976 115.6933,-158.48965 m -149.7999,228.60318 h -4.7253 v 132.29166 h -65.6209 l -26.1897,-26.19375 26.5197,-0.26352 h 38.8367 v -132.02709 -0.26458 h 12.0385 z m -31.1837,-228.59894 v 115.09375 h 12.0385 l 14.4198,-19.21537 v -69.94922 z"
       id="path983" />
    <path
       id="path1006"
       d="m 2205.9832,-471.82849 26.7052,25.92459 -119.9526,164.323 -22.455,-31.76146 c 38.5643,-52.82989 77.1286,-105.65977 115.6933,-158.48965 m 34.6518,360.89484 h -80.1688 l -26.1896,-26.19375 0.1325,-0.26352 h 79.5237 z m -184.4517,-132.29166 h -4.7253 v 132.29166 h -65.6209 l -26.1897,-26.19375 26.5197,-0.26352 h 38.8367 v -132.02708 -0.26459 h 12.0385 z m -31.1837,-228.59895 v 115.09375 h 12.0385 l 14.4198,-19.21536 v -69.94922 z"
       inkscape:connector-curvature="0"
       style="fill:currentColor;stroke-width:0.26458332"
       sodipodi:nodetypes="cccccccccccccccccccccccccccc" />
    <g
       id="g1021"
       transform="matrix(0.26458333,0,0,-0.26458333,2451.7187,-576.50863)">
      <path
         id="path1019"
         d="M 319.469,1265 C 424.655,1112.067 529.85,959.142 635.031,806.203 c 5.06548,8.2366 9.94312,16.661 14.9375,24.9688 l -230.969,335.828 z M 932,1 h 246 v 1264 l 100,-98 V -99 H 1029.984 Z M 419,709.984 V -99 H 170.984 L 71.9996,0 h 248 V 856 Z M 640,384 739,285 931,585.219 v 257.203 z"
         inkscape:connector-curvature="0"
         style="fill:currentColor" />
    </g>
    <g
       transform="matrix(0.26458333,0,0,-0.26458333,2451.7187,-104.66523)"
       id="g1035">
      <path
         style="fill:currentColor"
         inkscape:connector-curvature="0"
         d="m 932,1 h 246 v 1264 l 100,-98 V -99 H 1029.984 Z M 419,709.984 V -99 H 170.984 L 71.9996,0 h 248 V 856 Z M 640,384 739,285 931,585.219 v 257.203 z"
         id="path1033"
         sodipodi:nodetypes="ccccccccccccccccccc" />
    </g>
    <g
       id="g1039"
       transform="matrix(0.26458333,0,0,-0.26458333,2802.0703,-582.36447)">
      <path
         id="path1037"
         d="M 842.547,1 H 1089 v 1264 l 100,-98 V -99 H 941 Z M 72,0 170.9844,-99 h 248.016 v 752.953 l -100,156.438 V 0 h -247 z m 248,1266 99,-99 423,-654.766 v -54.7812 z"
         inkscape:connector-curvature="0"
         style="fill:currentColor" />
    </g>
    <g
       transform="matrix(0.26458333,0,0,-0.26458333,2802.0703,-82.605101)"
       id="g1053">
      <path
         style="fill:currentColor"
         inkscape:connector-curvature="0"
         d="M 842.547,1 H 1089 v 1264 l 100,-98 V -99 H 941 Z M 72,0 170.9844,-99 h 248.016 v 752.953 l -100,156.438 V 0 h -247 z"
         id="path1051"
         sodipodi:nodetypes="ccccccccccccccc" />
    </g>
    <g
       id="g1076"
       transform="matrix(0.26458333,0,0,-0.26458333,3114.9477,-579.69349)">
      <path
         id="path1074"
         d="m 872.7496,893.9215 c -46.1562,30.3438 -97.875,47.0781 -150.75,47.0781 L 722,941 C 551.984,941 393.984,768 393.984,526 393.9996,424.953 421.5465,338.391 465.9996,271.812 l -0.40335,-0.92395 C 366.17623,335.41685 294,461.32202 294,625 c 0,242.391 158.266,416 329,416 96.19157,0 188.43437,-55.11661 250.6398,-146.59823 z M 240.31385,138.07335 C 340.30198,38.107192 472.97008,-23 623,-23 c 329.344,0 575,294.438 575,648 0,196.09067 -75.5593,378.2842 -199.03767,501.6881 l 0.81867,0.5929 99,-99 C 1222.39,904.672 1298,722.265 1298,526.015 c 0,-354 -246,-649.016 -576,-649.016 -150.359,0 -283.281,61.25 -383.438,161.406 l -99,99 z"
         inkscape:connector-curvature="0"
         style="fill:currentColor"
         sodipodi:nodetypes="ccccccsscccssccsssccc" />
    </g>
    <g
       id="g1099"
       transform="matrix(0.26458333,0,0,-0.26458333,3461.6845,-574.22193)">
      <path
         id="path1097"
         d="m 800.25,1149.25 99,-99 C 971.25,978.25 1016,879 1015.984,770 1015.9996,552 837,373 619,373.016 H 419 V -99 H 170.984 L 72.9996,1 h 247 v 471 1 0 h 200 c 217.438,0 396,178.562 396,396 0,108.80857 -44.71409,207.8861 -116.63832,279.7227 z M 418.93347,719 H 320 319 v 1 298 1 h 1 200 c 69.18157,0 125.5951,-43.85117 143.8017,-106.11463 l -1.0207,-0.0884 c -13.7656,4.04688 -28.4688,6.20312 -43.7812,6.20312 h -200 l 0,-199.99437 z"
         inkscape:connector-curvature="0"
         style="fill:currentColor"
         sodipodi:nodetypes="csccccccccccsscccccccccsccsccc" />
    </g>
    <g
       id="g1122"
       transform="matrix(0.26458333,0,0,-0.26458333,-1350.3731,-562.90674)">
      <path
         id="path1120"
         d="m 732.406,416.594 c -0.84375,2.78125 -1.64062,5.57812 -2.40625,8.40625 -2,0 -4,-1 -5,-1 z m -361.594,-92.422 -46.8125,46.8281 c 7.20312,-8.51562 14.6875,-16.6562 22.4688,-24.4219 7.84375,-7.84375 15.9688,-15.3125 24.3438,-22.4062 z M 496.59592,658.3906 432.00212,723 l 1.18594,0.81228 103.328,-16.7188 c 18.1406,27.6562 50.4219,35.9062 82.4844,35.9062 44.1406,0 69.6875,-10.125 85.8906,-41.5469 l 0.75,-1.45312 h -1.64062 c -9.07812,0 -17.0938,1 -25,1 -40.9219,0 -77.8438,-3.98438 -113.734,-13.9688 -22.45229,-6.32507 -46.07121,-16.04787 -67.86096,-29.31919 z M 440.16365,448.51431 c 34.46332,-34.5328 95.45578,-45.51445 153.83679,-45.51445 42.6562,0 85.0156,5.875 125.062,9.90625 0.5,3.10938 3.95312,10.5156 5.23438,11.7969 l 0.29687,0.29688 h 0.40625 c 0.5,0 2.73438,1 5,1 l 0.76563,-0.0156 0.20312,-0.73437 c 21.9375,-80.75 74.625,-144.25 163.03101,-144.25 h 1 c 155.359,1 274.094,138.562 301.016,274.172 4.9843,29.9062 6.9843,59.8906 6.9843,89.8281 0,146.17387 -58.7764,280.10048 -159.5696,380.84818 l 0.7893,0.6205 99,-99 c 100.906,-100.906 159.766,-235.047 159.766,-381.469 0.016,-29.9844 -2,-60 -6.9844,-90 -27.0156,-135.984 -146.016,-274 -301.99998,-275 h -1.0156 c -45.7031,0 -81.9219,16.8906 -109.312,44.2812 l -85.5156,85.5312 c -33.9219,-3.6875 -69.5312,-7.8125 -105.156,-7.8125 -58.3281,0 -119.734,10.9844 -154.5,45.7656 l -99,99 z m 354.83859,335.48564 99,-99 c 37,-42 46,-107.984 46,-169 -0.0156,-7 -1,-14 -1,-21 0,0 1,-22 0.98438,-45 l 0.008,-4.2896 C 926.88148,435.72152 912.99657,430.00038 899,430.00038 c -19.4688,0 -38.75,12.3125 -56.8281,39.4531 l -0.14062,0.20312 -0.0156,0.23438 c -2.01562,17.0312 -3.01562,33.0469 -3.01562,45.1094 0,10.0625 1,22.0469 1,34 0,22.9688 -1,44.9531 -1,44.9531 v 0.0469 c 0,7.09375 1,14.0938 1,21 0,60.9375 -9.04688,126.672 -45.75,168.328 z M 950.60962,851.172 c -62.9062,44.2656 -140.281,71.8281 -226.609,71.8281 -123,0 -243,-58 -319,-162 -51,-70 -76,-151 -76,-233 0,-79.1406 23.4375,-158.281 71,-226.25 l -0.64612,-0.76498 c -27.77556,19.36568 -53.42059,42.54982 -76.11982,69.3741 -63.1562,74.1719 -94.2344,165.406 -94.2344,256.641 0,82.2031 25.0625,163.406 76.1875,233.578 76.2031,104.266 196.5,162.40608 319.812,162.42208 140.15518,0 256.77217,-72.47239 326.35502,-171.14708 z m -146.609,-577.1719 99,-98.9844 81,-160.016 c -82,-41.9844 -171,-62 -259,-61.9844 -150.156,0 -298.656,57.9688 -408.578,167.875 l -99,99 0.70038,0.71358 C 327.84166,110.87396 476.09303,52.99992 626.00008,52.99992 c 87.5312,0 176.016,19.8125 257.672,61.4375 l -80.1094,158.219 z M 703.938,603 l 1.0625,0.0625 V 602 505 504.23437 l -0.71875,-0.20312 c -0.0469,-0.0156 -39.0625,-11.0469 -69.2812,-11.0312 -12.9062,-0.0156 -26.9062,-2.01562 -40,-2 -26,-0.0156 -54,6.10938 -54,39 0,70.2656 102.453,69.0312 162.938,73 z"
         inkscape:connector-curvature="0"
         style="fill:currentColor"
         sodipodi:nodetypes="cccccccccccccsccssccccscccscccsccsccsccccccscccccccccscccsscsscccscscccscccccccccccscccacccccccsca" />
    </g>
    <g
       id="g1146"
       transform="matrix(0.26458333,0,0,-0.26458333,-1586.9305,-558.07628)">
      <path
         id="path1144"
         d="m 40.00002,905.00008 c 81.4062,-3.96875 162.00013,-6.95326 244.03113,-10.95328 2.70312,91.9688 85.5938,169.953 176.969,169.938 5.15625,0.016 9.10938,-0.9844 14.0156,-0.9844 68.48399,-2.5972 128.48303,-50.3121 154.35927,-112.2035 v 0 c -17.4531,7.1875 -36.125,11.4844 -55.375,12.2188 -5.01562,-0.0156 -9,0.98438 -14,0.98438 -91.0156,0 -174,-78 -176,-170 -82.0156,4 -163,8.01562 -245,12 l -99,99 M 336.00063,395.00002 h 246.016 c 0.0937,4.14062 0.98437,9.5625 0.98437,14 0,17.9375 -2,36.9219 -2,55 0,20.0625 2,40.2031 10.0781,59.375 l 0.0469,0.0937 0.0625,0.0937 c 31.1562,45.25 81.2812,72.2969 121.141,108.172 l 0.0625,0.0469 c 67.9531,51.9688 134.578,110.562 173.641,188.516 2.9375,20.6094 4.96875,41.8594 4.96875,62.7031 0,114.24249 -45.92917,224.52948 -125.79875,304.29658 v 0 l 98.9844,-99 C 944.1249,1008.3595 990.9844,898.422 990.9844,784 991,763 989.00002,742 986.00002,721 c -39,-78 -106,-137 -174.016,-189 -39.9844,-36 -90,-63 -120.984,-108 -8.01562,-19 -10,-38.9844 -10,-58.9844 0,-18.0156 2,-37 2,-55.0156 0,-5 -1,-10 -1,-15 h -248 l -99,100.00002 v 0 z M 362.984,42.4996 C 389.01806,16.460221 425.52796,1 465.016,1 544.4535,1 610,66.5625 610,146 c 0,39.54847 -15.37937,75.95679 -41.5,102 v 0 l 98.9844,-98.9844 C 693.7032,122.7968 710,86.75 710,46.9996 c 0,-79.9844 -66,-146 -146,-146 -39.75,0 -75.7969,16.2969 -102.016,42.5156 z"
         inkscape:connector-curvature="0"
         style="fill:currentColor"
         sodipodi:nodetypes="cccccccscccccssccccccscccccccssccccccssccssscc" />
    </g>
    <g
       id="g2317"
       transform="matrix(0.26458333,0,0,-0.26458333,3736.1473,-577.03727)">
      <path
         id="path2315"
         d="m 862.62525,-224.00085 h 278.76605 l -170.29705,339.547 -0.34375,0.6875 0.57813,0.51563 c 138.79697,122.812 225.67197,302.531 225.67197,512.25 0,194.47568 -74.3266,373.47542 -196.0131,495.18992 l 0.6535,0.7638 99,-99 C 1222.563,904.047 1297,724.75 1297,530.015 1297,319.999 1210,139.999 1070.984,16.999 l 171.016,-341 H 960.984 l -98.9844,99 z M 806.4215,-111.798 c -27.8906,-4.70312 -56.4531,-7.20312 -85.4219,-7.20312 -150.359,0 -283.266,61.2344 -383.422,161.391 l -99,99 0.9677,0.43122 C 339.50448,41.994311 472.08177,-19.016 622,-19.016 c 44.9062,0.01563 88.8281,6 130.75,16.9844 l 0.79687,0.203125 0.35938,-0.734375 53.48406,-108.93591 z M 464.01731,275.26628 C 364.89615,339.90615 293,465.65068 293,629 c 0,242.406 158.312,410 329,410 97.52622,0 191.01212,-54.7136 253.23582,-146.83392 l -0.79832,-0.60498 c -46.8438,30.6562 -99.5312,47.4375 -153.438,47.4375 L 721,939 C 551,939 393,772 393,530 393,428.953 420.5469,342.391 465,275.812 Z"
         inkscape:connector-curvature="0"
         style="fill:currentColor"
         sodipodi:nodetypes="cccccscccsccccccsccccccccccssccccscc" />
    </g>
    <g
       id="g2340"
       transform="matrix(0.26458333,0,0,-0.26458333,4076.6671,-549.39218)">
      <path
         id="path2338"
         d="m 646.53643,1007.7914 c -13.7812,4.0469 -28.4844,6.2188 -43.7969,6.2188 h -200 V 817.99417 l -0.12249,-0.99975 h -98.86261 -1 v 1 l -0.015,294.99998 v 1 h 1 200 c 69.15305,0 125.53231,-43.7882 143.77028,-105.9972 z m 78.76575,-906.7971 h 285.62512 l -321.04712,515.469 -0.5625,0.90625 0.9375,0.51562 c 123.719,66.8281 209.484,196.5 209.484,346.109 0,108.73453 -44.65324,207.74723 -116.49148,279.57003 l 0.74173,0.6802 99,-99 c 72.00004,-72 116.75004,-171.24998 116.75004,-280.24998 0,-150 -86.00004,-279.984 -210.01604,-346.984 L 1111.7235,0.99442146 H 823.73943 l -99,98.99999954 z M 491.08343,470.99442 h -88.3438 V 1.0104215 l -248.016,-0.01563 -98.984402,98.99999954 1.0002,0.999629 246.000002,0.0156 v 468.98399 1 h 1 125 0.54687 l 0.29688,-0.46875 62.57523,-99.35449 z"
         inkscape:connector-curvature="0"
         style="fill:currentColor"
         sodipodi:nodetypes="cscccccccccscccccccsccsscccccccccccccccccccc" />
    </g>
    <g
       id="g2363"
       transform="matrix(0.26458333,0,0,-0.26458333,4358.01,-223.50474)">
      <path
         id="path2361"
         d="M 182.98611,661.27431 C 217.52081,626.73947 259.19916,599.4372 306.328,582.938 l 0.0469,-0.0156 c 70.4688,-28.7812 163,-11.8125 216.391,-78.2812 14.64014,-16.26494 24.89399,-34.87498 31.23812,-54.71083 l -0.91,-0.44667 c -47.3125,15.25 -102.109,14.7344 -148.094,33.5156 -47.2812,16.5469 -89.0938,43.9375 -123.734,78.5781 l -99,98.9844 z M 266.10714,326.9941 c 19.33696,-29.38818 46.44079,-54.41481 72.32374,-72.52887 -32.9777,1.84047 -71.72674,32.7325 -72.32374,72.52887 z M 171.6402,69.76598 c 67.7812,-54.8125 154.578,-82.7656 241.35901,-82.7656 86.7969,0 172.547,27.9219 240.375,83.7812 100.75,76.8125 154.625,201.484 154.625,326.219 0,117.96697 -46.564,218.01169 -117.96719,289.43179 l 0.67123,0.73955 99,-98.9844 c 71.5938,-71.6094 118.297,-171.922 118.281,-290.188 0,-125 -53.9844,-250 -155,-327 -67.9844,-56 -153.984,-84 -240.984,-84 -87,0 -174,28.0156 -242,83 l -99,99 z m 250.44604,737.39367 c -33.50979,6.59461 -66.78982,17.85457 -83.94593,51.32533 -11.125,17.2188 -16.1406,38.375 -16.1406,59.5156 0,55.3594 37.2344,111.98402 95.9844,114.00002 44.25,0 84.0156,-33.68751 113.156,-61.75001 70.3281,41.60941 141,85.37501 211.5,127.10901 -14.87625,25.6314 -33.10892,48.9889 -53.94537,69.7714 v 0 L 788.719,1068.578 c 21.15501,-20.8438 39.3438,-44.625 54.2812,-70.5781 -71,-42 -142,-86 -213.016,-128 -28.9844,28 -69,62 -112.984,62 -58.0156,-1.98438 -95.0156,-58 -95.0156,-113 z M 522.766,504.641 c 0,-0.0156 0,-0.0156 0.0156,-0.0312 l -0.0312,0.0469 c 0,0 0,-0.0156 0.0156,-0.0156 z M 338.141,858.484 c -0.0156,0.0156 -0.0156,0.0312 -0.0312,0.0469 l 0.0469,-0.0781 c 0,0.0156 -0.0156,0.0156 -0.0156,0.0312 z"
         inkscape:connector-curvature="0"
         style="fill:currentColor"
         sodipodi:nodetypes="ccccccccccccccscscccccscccccscccccscccccscccsccccc" />
    </g>
    <g
       id="g2386"
       transform="matrix(0.26458333,0,0,-0.26458333,4829.6269,-552.85214)">
      <path
         id="path2384"
         d="m 1026,1262.999 99,-99 V 412.015 c -2,-261 -188,-525.016 -482,-525.016 V -113 c -131.266,0 -241.141,52.6562 -322.672,134.203 l -99,98.9844 0.42724,1.00226 C 303.15695,39.661383 412.9012,-13 544,-13 c 293.312,0 479,263.422 481,524.016 V 1262 Z m -716,4e-4 99,-99 v -749 c 0,-58.2812 15.4062,-112.938 41.2656,-158.141 l -0.50658,-0.86537 C 443.96397,259.10011 438.19528,262.48921 432.453,266.156 360.1249,313.3748 309,407.687 309,514 v 748 z"
         inkscape:connector-curvature="0"
         style="fill:currentColor"
         sodipodi:nodetypes="ccccccccscccccscccscc" />
    </g>
    <g
       id="g2409"
       transform="matrix(0.27892675,0,0,-0.28838387,4703.1567,249.32356)"
       style="stroke-width:0.93289322">
      <path
         id="path2407"
         d="m 960,146 c 139,124 226,302 226,513 0,194 -73,374 -195,496 l 99,-99 c 122,-122 196,-301 196,-496 0,-210 -87,-390 -226,-513 l 171,-341 H 950 l -99,99 1,1 h 278 C 1073,-81 1017,33 960,146 Z M 796,-81 c -23,-7 -52,-8 -78,-8 h -8 C 560,-89 427,-28 327,72 l -99,99 C 328,71 461,11 611,11 c 45,0 90,6 132,17 18,-37 35,-72 53,-109 z M 282,659 c 0,242 158,410 329,410 98,0 191,-55 253,-147 v 0 C 817,953 764,969 710,969 540,969 382,802 382,560 382,459 409,372 453,305 354,370 282,496 282,659 Z"
         inkscape:connector-curvature="0"
         style="fill:currentColor;stroke-width:0.93289322" />
    </g>
    <g
       transform="matrix(0.26458333,0,0,-0.26458333,5080.2949,253.41009)"
       id="g2423">
      <path
         sodipodi:nodetypes="ccccccccscccccscccscc"
         style="fill:currentColor"
         inkscape:connector-curvature="0"
         d="m 1026,1262.999 99,-99 V 412.015 c -2,-261 -188,-525.016 -482,-525.016 V -113 c -131.266,0 -241.141,52.6562 -322.672,134.203 l -99,98.9844 0.42724,1.00226 C 303.15695,39.661383 412.9012,-13 544,-13 c 293.312,0 479,263.422 481,524.016 V 1262 Z m -716,4e-4 99,-99 v -749 c 0,-58.2812 15.4062,-112.938 41.2656,-158.141 l -0.50658,-0.86537 C 443.96397,259.10011 438.19528,262.48921 432.453,266.156 360.1249,313.3748 309,407.687 309,514 v 748 z"
         id="path2421" />
    </g>
    <g
       id="g2491"
       transform="matrix(0.29853822,0,0,-0.29054381,4039.9846,235.0498)"
       style="stroke-width:0.89837301">
      <path
         id="path2489"
         d="m 157,104 c 76,-74 166,-124 262,-143 21,-5 44,-7 65,-7 52,0 104,13 150,28 116,38 216,103 277,182 l 99,-99 C 907,-69 763,-147 606,-147 478,-147 351,-92 252,7 l -99,99 z M 980,987 795,821 766,850 C 715,895 661,915 607,915 526,915 454,878 391,791 334,712 307,607 307,502 307,401 333,310 384,236 l -30,21 c -92,75 -147,201 -147,344 0,105 28,210 85,289 63,87 136,125 217,125 64,0 128,-27 188,-94 61,56 123,109 184,165 z"
         inkscape:connector-curvature="0"
         style="fill:currentColor;stroke-width:0.89837301" />
    </g>
    <g
       id="g1011"
       transform="matrix(0.26458333,0,0,-0.26458333,4347.6689,-988.30142)">
      <path
         id="path1009-3"
         d="m 74,921 c 0,203 162,358 344,357.984 100.922,0.016 201.25,-40.9375 271.719,-111.406 l 99,-99 c 21,-21 39.3438,-44.625 54.2812,-70.5781 -71,-42 -142,-86 -213.016,-128 -28.9844,28 -69,62 -112.984,62 -58.0156,-1.98438 -95.0156,-58 -95.0156,-113 0,-3.625 0.15625,-7.26562 0.46875,-10.8906 9.9375,-1.95312 19.9375,-3.51562 29.5469,-5.10938 89.1875,-9.96875 174.094,-51.2031 238.703,-115.828 l 99,-98.9844 c 71.5938,-71.6094 118.297,-171.922 118.281,-290.188 0,-125 -53.9844,-250 -155,-327 -67.9844,-56 -153.984,-84 -240.984,-84 -87,0 -174,28.0156 -242,83 l -99,99 c -17.9375,15.5 -35.9688,31.6562 -53.0938,48.7812 -39.1562,39.1562 -73.5,83.3281 -90.9062,136.219 62,20 125,41 187,61 17.3906,1.82812 44.8281,20.4062 52.4219,12.8281 0.70312,-0.70312 1.23438,-1.64062 1.57812,-2.82812 l 69.2344,-69.2344 c 23.5781,-14.6094 49.8594,-23.75 76.7656,-23.75 94,0 147,88 147,164.984 0,17.9375 -2.53125,35.6562 -7.90625,52.4844 -47.3125,15.25 -102.109,14.7344 -148.094,33.5156 -47.2812,16.5469 -89.0938,43.9375 -123.734,78.5781 l -99,98.9844 c -67.9219,67.9375 -108.266,163.75 -108.266,260.438 z M 374.25,823.734 339,858.984 c 4.03125,-7.85938 8.95312,-14.4688 14.5625,-20.0938 6.15625,-6.15625 13.1406,-11.1094 20.6875,-15.1562 z M 75,921 C 75,775.391 166.7656,631.797 306.328,582.938 l 0.0469,-0.0156 c 70.4688,-28.7812 163,-11.8125 216.391,-78.2812 27.1719,-30.1875 39.2344,-68.4531 39.2344,-107.641 0,-77.3438 -53.2656,-165.984 -148,-165.984 -59.5,0 -115.719,44.2656 -146.844,93.4531 l -0.0781,0.125 -0.0469,0.14063 c -1.25,4.40625 -5.76562,4.76562 -13.1875,2.65625 -11.5625,-3.3125 -27.1719,-11.9375 -39.6406,-13.375 -61.5312,-19.8594 -123.687995,-40.5625 -185.937995,-60.6562 25.1875,-75.2031 84.609395,-132.797 143.374995,-183.594 67.7812,-54.8125 154.578,-82.7656 241.35901,-82.7656 86.7969,0 172.547,27.9219 240.375,83.7812 100.75,76.8125 154.625,201.484 154.625,326.219 0,224.469 -168.594,384.047 -356.109,405 l -0.0469,0.0156 c -41.875,6.98438 -91.4062,12.9688 -113.703,56.4688 -11.125,17.2188 -16.1406,38.375 -16.1406,59.5156 0,55.3594 37.2344,111.98402 95.9844,114.00002 44.25,0 84.0156,-33.68751 113.156,-61.75001 70.3281,41.60941 141,85.37501 211.5,127.10901 -65.0312,112.047 -194.203,180.641 -324.641,180.625 -181.438,0.016 -343,-154.516 -343,-356.98401 z M 522.766,504.641 c 0,-0.0156 0,-0.0156 0.0156,-0.0312 l -0.0312,0.0469 c 0,0 0,-0.0156 0.0156,-0.0156 z M 338.141,858.484 c -0.0156,0.0156 -0.0156,0.0312 -0.0312,0.0469 l 0.0469,-0.0781 c 0,0.0156 -0.0156,0.0156 -0.0156,0.0312 z"
         inkscape:connector-curvature="0"
         style="fill:currentColor" />
    </g>
    <g
       transform="matrix(0.26458333,0,0,-0.26458333,4347.6689,-559.35288)"
       id="g1026">
      <path
         style="fill:currentColor"
         inkscape:connector-curvature="0"
         d="m 426.64538,232.55858 c -21.98161,-3.55604 -47.87308,2.24234 -65.8807,9.63496 -31.21931,13.05804 -59.10311,36.31007 -80.00122,63.02812 -5.37305,6.63177 -9.26776,13.22067 -13.68526,19.37264 l -1.52301,4.41089 c 0.70964,-0.28841 55.78128,-22.59856 55.78128,-22.59856 0.23369,-0.69255 59.94101,-77.71687 105.30891,-73.84805 z m 264.05787,454.61334 99,-98.9844 c 71.5938,-71.6094 118.297,-171.922 118.281,-290.188 0,-125 -53.9844,-250 -155,-327 -67.9844,-56 -153.984,-84 -240.984,-84 -87,0 -174,28.0156 -242,83 l -99,99 v 0 c 67.7812,-54.8125 155.21795,-81.99914 241.99896,-81.99914 86.7969,0 172.547,27.9219 240.375,83.7812 100.75,76.8125 154.625,201.484 154.625,326.219 0,118.04853 -45.80904,218.74148 -117.29596,290.17134 z M 422.45335,808.1093 c -33.55541,6.59096 -67.13387,16.85994 -84.31304,50.37568 -11.125,17.2188 -16.1406,38.375 -16.1406,59.5156 0,55.3594 37.2344,111.98402 95.9844,114.00002 44.25,0 84.0156,-33.68751 113.156,-61.75001 70.3281,41.60941 141,85.37501 211.5,127.10901 -14.9394,25.7402 -31.97402,49.3696 -52.92111,70.2184 l 99,-99 c 21,-21 39.3438,-44.625 54.2812,-70.5781 -71,-42 -142,-86 -213.016,-128 -28.9844,28 -69,62 -112.984,62 -58.0156,-1.98438 -95.0156,-58 -95.0156,-113 0,-3.625 0.15625,-7.26562 0.46875,-10.8906 9.9375,-1.95312 9.99607,-1.96343 0,0 z M 183.06015,661.2003 C 217.58037,626.70046 259.23283,599.42541 306.328,582.938 l 0.0469,-0.0156 c 70.4688,-28.7812 163,-11.8125 216.391,-78.2812 14.71384,-16.34681 24.99711,-35.06239 31.33363,-55.01046 v 0 c -47.3125,15.25 -103.11451,14.58736 -149.09951,33.36856 -47.2812,16.5469 -89.0938,43.9375 -123.734,78.5781 l -98.20587,99.6229 M 522.766,504.641 c 0,-0.0156 0,-0.0156 0.0156,-0.0312 l -0.0312,0.0469 c 0,0 0,-0.0156 0.0156,-0.0156 z M 338.141,858.484 c -0.0156,0.0156 -0.0156,0.0312 -0.0312,0.0469 l 0.0469,-0.0781 c 0,0.0156 -0.0156,0.0156 -0.0156,0.0312 z"
         id="path1024"
         sodipodi:nodetypes="cccccccsccccscccscsccccsccccsccccccccccccccccscccccc" />
    </g>
    <g
       id="g1064"
       transform="matrix(2.2527949,0,0,1.5515152,-8114.1732,1128.142)"
       style="stroke-width:0.53488594">
      <path
         sodipodi:nodetypes="cc"
         style="opacity:1;fill:none;fill-opacity:1;stroke:#ff1a1a;stroke-width:1.41521907;stroke-linecap:butt;stroke-linejoin:miter;stroke-miterlimit:4;stroke-dasharray:none;stroke-dashoffset:0;stroke-opacity:1;paint-order:normal"
         d="M -140.2636,-540.80713 H 6055.6515"
         id="path1048"
         inkscape:connector-curvature="0" />
      <path
         sodipodi:nodetypes="cc"
         inkscape:connector-curvature="0"
         id="path1050"
         d="M 98.983982,-323.9771 H 6055.1098"
         style="opacity:1;fill:none;fill-opacity:1;stroke:#ff1a1a;stroke-width:1.41521907;stroke-linecap:butt;stroke-linejoin:miter;stroke-miterlimit:4;stroke-dasharray:none;stroke-dashoffset:0;stroke-opacity:1;paint-order:normal" />
      <rect
         y="-539.14642"
         x="-111.59186"
         height="212.94052"
         width="205.79747"
         id="rect1052"
         style="opacity:1;fill:none;fill-opacity:1;stroke:#e818e2;stroke-width:0.56608766;stroke-linecap:butt;stroke-linejoin:miter;stroke-miterlimit:4;stroke-dasharray:none;stroke-dashoffset:0;stroke-opacity:1;paint-order:normal" />
      <path
         sodipodi:nodetypes="cc"
         inkscape:connector-curvature="0"
         id="path1054"
         d="M 98.983982,-462.08961 H 6055.1098"
         style="opacity:1;fill:none;fill-opacity:1;stroke:#ff1a1a;stroke-width:1.41521907;stroke-linecap:butt;stroke-linejoin:miter;stroke-miterlimit:4;stroke-dasharray:none;stroke-dashoffset:0;stroke-opacity:1;paint-order:normal" />
      <path
         sodipodi:nodetypes="cc"
         inkscape:connector-curvature="0"
         id="path1056"
         d="M 98.983982,-469.96294 H 6055.1098"
         style="opacity:1;fill:none;fill-opacity:1;stroke:#ffa3a3;stroke-width:1.41521907;stroke-linecap:butt;stroke-linejoin:miter;stroke-miterlimit:4;stroke-dasharray:none;stroke-dashoffset:0;stroke-opacity:1;paint-order:normal" />
      <path
         sodipodi:nodetypes="cc"
         inkscape:connector-curvature="0"
         id="path1058"
         d="M 98.983982,-236.90707 H 6055.1098"
         style="opacity:1;fill:none;fill-opacity:1;stroke:#ffa3a3;stroke-width:1.41521907;stroke-linecap:butt;stroke-linejoin:miter;stroke-miterlimit:4;stroke-dasharray:none;stroke-dashoffset:0;stroke-opacity:1;paint-order:normal" />
      <path
         inkscape:connector-curvature="0"
         id="path1060"
         d="M -140.2636,-607.04917 H 6055.6515"
         style="opacity:1;fill:none;fill-opacity:1;stroke:#ff1a1a;stroke-width:1.41521907;stroke-linecap:butt;stroke-linejoin:miter;stroke-miterlimit:4;stroke-dasharray:none;stroke-dashoffset:0;stroke-opacity:1;paint-order:normal"
         sodipodi:nodetypes="cc" />
      <path
         inkscape:connector-curvature="0"
         id="path1062"
         d="M -140.2636,-533.73854 H 6055.6515"
         style="opacity:1;fill:none;fill-opacity:1;stroke:#1a34ff;stroke-width:1.41521907;stroke-linecap:butt;stroke-linejoin:miter;stroke-miterlimit:4;stroke-dasharray:none;stroke-dashoffset:0;stroke-opacity:1;paint-order:normal"
         sodipodi:nodetypes="cc" />
    </g>
    <g
       id="g1068"
       transform="matrix(0.26458333,0,0,-0.26458333,-1864.7993,625.21783)">
      <path
         id="path1066"
         d="m 642.32547,52.312403 c -0.26562,0.359375 -0.53125,0.671875 -0.8125,0.953125 -0.28125,0.28125 -0.5625,0.515625 -0.85937,0.71875 z M 43.841072,635.8123 245.16907,603.0779 c 35.1406,54.6406 98.4062,69.9062 160.484,69.9062 87.1719,0 155.656,-28.0781 186.891,-88.5312 l 0.92187,-1.78125 -1.96875,0.32812 -60.9219,9.98438 c -135.865,-0.0113 -241.50314,-19.54878 -331.24036,-66.6708 l -1.21226,0.49947 -56.4688,9.17188 -97.812798,99.8276 M 55.583729,97.851416 C 123.24842,26.243443 244.31885,-1.0158421 358.65329,-1.0158421 c 83.5156,0 167.016,23.7812001 244.031,30.9219001 0.57813,7.1875 7.96875,21.4844 10.2656,23.7812 l 0.17188,0.171875 0.21875,0.07813 c 6.42188,2.14062 27.3125,1.04688 27.3594,1.04688 l 0.26562,-0.01563 0.23438,-0.140625 c 6.70312,-4.46875 6.8125,-22.5938 10.6719,-24.8438 21.9531,0 195.422,1.78125 214.125,1.98438 -25.4219,49.5469 -30.3438,180.827992 -30.3438,276.015992 0,49.0156 1,75.0156 1,117 l 4.5e-4,-1.6e-4 c 0,119.953 -17.0312,246.672 -88.7344,328.328 l 0.73505,0.67215 99,-99 c 72,-81.9844 89,-208.984 89,-329 l -6.5e-4,-1.5e-4 c 0,-42 -1.01562,-68 -1,-117 -0.0156,-96 5,-228.983997 31,-276.999997 0,0 -193,-2 -216,-2 l -25.2188,25.2344 c -5.125,-0.07813 -10.2656,-0.390625 -12.7812,-1.23438 -2,-2 -10,-17 -10.0156,-24 -76.9844,-7 -161,-31.000003 -244.984,-31.000003 -112.047,0 -230.953,26.187503 -299.625,94.8750029 L 55.583729,97.851416 M 530.57547,592.9843 l -0.0781,0.0156 0.15623,-0.0156 z M 357.17976,174.00241 c -50.41339,0.73945 -100.52629,24.21101 -100.52629,85.98189 0,138.25 215.375,150.031 334.922,159 l 1.07812,0.0781 v -1.0781 -107.58231 0 C 485.99759,297.69889 367.80476,266.86141 357.17976,174.00241 Z"
         inkscape:connector-curvature="0"
         style="fill:currentColor;stroke:none;stroke-opacity:1;stroke-width:10.00000019;stroke-miterlimit:4;stroke-dasharray:none"
         sodipodi:nodetypes="csccccscccccccccscccccccccscccccccccccccscccccccscccccc" />
    </g>
    <g
       id="g1091"
       transform="matrix(0.26458333,0,0,-0.26458333,-1602.1172,604.78263)">
      <path
         id="path1089"
         d="m 63.5312,1 h 245.297 l -0.0156,72.75 v 3.60938 l 1.85938,-3.09375 c 11.9062,-19.8281 38.625,-39.0625 70.6094,-53.9219 89.6406,-41.2656 193.891,-30.25 276.672,1.34375 165.844,64.5938 284.5,226.5 284.5,414.141 0,123.89578 -51.73311,236.55849 -134.61056,317.40417 v 0 L 911.531,650.99875 c 80.7344,-80.7188 130.906,-192 130.922,-314.172 0,-188.078 -118.922,-350.328 -285.141,-415.078 -82.9688,-31.6562 -187.469,-42.7344 -277.469,-1.3125 -23.3594,10.8594 -43.9844,24.0469 -58.125,38.1875 l -12.9062,12.9219 v -70.5469 h -247.281 l -99,99 M 309.8282,1284.28 l 98.9844,-99 V 857.108 l -0.0382,-1.09583 c -11.10416,-4.69234 -22.06036,-10.19728 -32.85205,-16.55819 -26.8438,-16.0469 -50.0625,-34.3906 -65.3906,-49.9844 l -1.70312,-1.75 v 2.45312 493.109 M 406.49981,237.98338 C 335.09441,271.83608 285.719,344.57329 285.719,428.844 c 0,116.5934 94.5156,211.109 211.109,211.109 84.20669,0 156.8969,-49.29971 190.78901,-120.61082 L 686.453,519.469 c -27.4375,13.1406 -58.1719,20.5 -90.625,20.5 -116.047,-0.0156 -210.109,-94.0781 -210.109,-210.109 0,-32.4531 7.35938,-63.2031 20.4844,-90.6406 z"
         inkscape:connector-curvature="0"
         style="fill:currentColor"
         sodipodi:nodetypes="cccccccscccccccccccccccccccccsscccscc" />
    </g>
  </g>
</svg>
